<?xml version="1.0" encoding="UTF-8"?> <!-- Generator: Adobe Illustrator 22.1.0, SVG Export Plug-In . SVG Version: 6.00 Build 0) --> <svg xmlns="http://www.w3.org/2000/svg" xmlns:xlink="http://www.w3.org/1999/xlink" version="1.1" id="Layer_1" x="0px" y="0px" viewBox="0 0 120 40" style="enable-background:new 0 0 120 40;" xml:space="preserve"> <style type="text/css"> .st0{fill:#F7F3FF;} </style> <g> <path class="st0" d="M27.8,11.5c-0.2-1.6-0.5-1.8-2.2-1.5c-0.1,0.4-1.3,8.7-1.9,12.5c-0.3,2.1-1.1,7-1.1,7h2.3L26.4,17h0.2 l1.6,12.5h2.2C30.4,29.1,28.6,17.2,27.8,11.5z"></path> <path class="st0" d="M47.3,20c-0.8-2.8-1.4-5.6-2-8.5c-0.3-1.6-0.7-1.8-2.4-1.5v19.4h1.9v-9.7c0.2,0.2,1.5,5.7,2.1,8.3 c0.3,1.5,0.7,1.7,2.3,1.4V10h-2V20z"></path> <path class="st0" d="M97.5,12.6c0-1.8-1-2.8-2.8-2.8c-2.3,0-3.3,0.8-3.3,2.7c0,4.8,0,9.7,0,14.5c0,1.9,1,2.7,3.2,2.7 c2,0,3-0.9,3-2.8c0-2.4,0-4.8,0-7.1S97.5,15,97.5,12.6z M95.5,19.8c0,2.2,0,4.5,0,6.7c0,0.7-0.1,1.4-1,1.5l0,0 c-1,0-1.1-0.7-1.1-1.5c0-4.5,0-8.9,0-13.4c0-0.7,0.1-1.4,1-1.5c1,0,1.1,0.7,1.1,1.5C95.5,15.3,95.5,17.6,95.5,19.8z"></path> <path class="st0" d="M74.6,9.9c-0.1,0-0.3,0.1-0.4,0.2c0.3,0.6,0.5,1.4,0.9,1.6c0.6,0.4,0.7,0.8,0.7,1.4c0,4.9,0,9.8,0,14.8 c0,1.9,0.1,1.9,2.1,1.6c0-0.4,0-11.4,0-16.5C77.9,9.8,77.7,9.6,74.6,9.9z"></path> </g> <path class="st0" d="M62.2,39h-0.7c-0.2,0-0.5-0.2-0.5-0.5V1.2c0-0.2,0.2-0.5,0.5-0.5h0.7c0.2,0,0.5,0.2,0.5,0.5v37.3 C62.6,38.8,62.4,39,62.2,39z"></path> </svg> 