<?xml version="1.0" encoding="UTF-8"?> <svg xmlns="http://www.w3.org/2000/svg" xmlns:xlink="http://www.w3.org/1999/xlink" viewBox="0 0 230.82 113.68"><defs><style>.cls-1{fill:url(#New_Gradient_Swatch);}.cls-2{fill:#f7f3ff;}.cls-3{fill:#fff;}.cls-4,.cls-5,.cls-6,.cls-7{fill:none;stroke-miterlimit:10;}.cls-4,.cls-5{stroke-width:2.5px;}.cls-4{stroke:url(#New_Gradient_Swatch-2);}.cls-5,.cls-6,.cls-7{stroke:#fff;stroke-linecap:round;}.cls-6,.cls-7{stroke-width:1.5px;}.cls-7{stroke-dasharray:4.2 4.2;}.cls-8{opacity:0.3;}</style><linearGradient id="New_Gradient_Swatch" x1="61.4" y1="-4.07" x2="195.49" y2="105.05" gradientUnits="userSpaceOnUse"><stop offset="0" stop-color="#d400ff"></stop><stop offset="1" stop-color="#7600ff"></stop></linearGradient><linearGradient id="New_Gradient_Swatch-2" x1="0" y1="101.96" x2="50.47" y2="101.96" xlink:href="#New_Gradient_Swatch"></linearGradient></defs><title>icon-ux-first</title><g id="Layer_2" data-name="Layer 2"><g id="Layer_3" data-name="Layer 3"><path class="cls-1" d="M177,3.62H69.63a6.32,6.32,0,0,0-6.3,6.31v72.8a6.3,6.3,0,0,0,6.3,6.3h35.55l-3.82,14.64a3.76,3.76,0,0,0,3.64,4.71h36.67a3.76,3.76,0,0,0,3.64-4.71L141.49,89H177a6.3,6.3,0,0,0,6.3-6.3V9.93A6.32,6.32,0,0,0,177,3.62ZM142.89,104.3a1.26,1.26,0,0,1-1.22,1.58H105a1.25,1.25,0,0,1-1-.49,1.22,1.22,0,0,1-.22-1.09l4-15.27h31.15Zm38-21.57a3.81,3.81,0,0,1-3.8,3.8H69.63a3.77,3.77,0,0,1-2.69-1.11,3.81,3.81,0,0,1-1.11-2.69V72.64h115Zm-115-12.59V9.93a3.82,3.82,0,0,1,3.8-3.81H177a3.82,3.82,0,0,1,3.8,3.81V70.14Z"></path><path class="cls-2" d="M152.89,61.12H138.53V26.3h14.36ZM141,58.62h9.36V28.8H141Z"></path><path class="cls-3" d="M130.51,61.12H116.15V34.28h14.36Zm-11.86-2.5H128V36.78h-9.36Z"></path><path class="cls-2" d="M108.14,61.12H93.78V16.36h14.36Zm-11.86-2.5h9.36V18.86H96.28Z"></path><rect class="cls-4" x="1.25" y="91.49" width="47.97" height="20.94" rx="4.22" ry="4.22"></rect><path class="cls-5" d="M55.74,51.33H40.23a6,6,0,0,0-6,6V83.42"></path><path class="cls-5" d="M16.26,83.42V54.14a20.83,20.83,0,0,1,20.8-20.81H55.74"></path><line class="cls-6" x1="25.06" y1="83.42" x2="25.06" y2="81.42"></line><path class="cls-7" d="M25.06,77.21V53.26A10.92,10.92,0,0,1,36,42.34H51.64"></path><line class="cls-6" x1="53.74" y1="42.34" x2="55.74" y2="42.34"></line><g class="cls-8"><path class="cls-5" d="M190.09,33.33H205.6a6,6,0,0,0,6-6V1.25"></path><path class="cls-5" d="M229.57,1.25V30.53a20.82,20.82,0,0,1-20.8,20.8H190.09"></path><line class="cls-6" x1="220.77" y1="1.25" x2="220.77" y2="3.25"></line><path class="cls-7" d="M220.77,7.45v24a10.92,10.92,0,0,1-10.92,10.92H194.19"></path><line class="cls-6" x1="192.09" y1="42.33" x2="190.09" y2="42.33"></line></g><path class="cls-3" d="M14,103.62a2.28,2.28,0,0,1-.89,1.9,3.61,3.61,0,0,1-2.27.69,4.23,4.23,0,0,1-3.13-1.13L8.8,104a2.76,2.76,0,0,0,2.06.72c1,0,1.51-.35,1.51-1a.94.94,0,0,0-.25-.72,1.4,1.4,0,0,0-.77-.3l-1-.15a2.25,2.25,0,0,1-2.27-2.39,2.39,2.39,0,0,1,.8-1.87A3.15,3.15,0,0,1,11,97.52a3.79,3.79,0,0,1,2.76,1l-1.06,1A2.44,2.44,0,0,0,11,99a1.44,1.44,0,0,0-1,.31,1,1,0,0,0-.34.77.83.83,0,0,0,.27.63,1.33,1.33,0,0,0,.77.32l1,.15a2.89,2.89,0,0,1,1.63.66A2.36,2.36,0,0,1,14,103.62Z"></path><path class="cls-3" d="M21.06,99.08H18.83v7.06H17.16V99.08H14.93V97.59h6.13Z"></path><path class="cls-3" d="M29,106.14H27.27l-.5-1.51h-3l-.51,1.51H21.48l3.11-8.55h1.3Zm-2.68-2.92-1-3.11-1.08,3.11Z"></path><path class="cls-3" d="M36.54,106.14H34.61l-1.67-3.41h-1.2v3.41H30.07V97.59h3.35a2.76,2.76,0,0,1,2,.77,2.51,2.51,0,0,1,.73,1.85,2.32,2.32,0,0,1-.47,1.46,2.36,2.36,0,0,1-1.09.79Zm-2-5.93a1.08,1.08,0,0,0-.33-.82,1.29,1.29,0,0,0-.88-.31H31.74v2.25h1.57a1.29,1.29,0,0,0,.88-.31A1.07,1.07,0,0,0,34.52,100.21Z"></path><path class="cls-3" d="M43.41,99.08H41.18v7.06H39.51V99.08H37.28V97.59h6.13Z"></path></g></g></svg> 