<?xml version="1.0" encoding="UTF-8"?> <svg xmlns="http://www.w3.org/2000/svg" xmlns:xlink="http://www.w3.org/1999/xlink" viewBox="0 0 238.1 106.34"><defs><style>.cls-1,.cls-5{fill:none;}.cls-1{stroke:#f7f3ff;stroke-miterlimit:10;stroke-opacity:0.3;stroke-width:2.5px;}.cls-2{fill:#fff;}.cls-3{fill:url(#New_Gradient_Swatch);}.cls-4{fill:url(#New_Gradient_Swatch-2);}.cls-5{stroke-width:1.5px;stroke:url(#New_Gradient_Swatch-3);}</style><linearGradient id="New_Gradient_Swatch" x1="21.82" y1="41.84" x2="55.48" y2="72.68" gradientUnits="userSpaceOnUse"><stop offset="0" stop-color="#d400ff"></stop><stop offset="1" stop-color="#7600ff"></stop></linearGradient><linearGradient id="New_Gradient_Swatch-2" x1="28.1" y1="34.99" x2="61.76" y2="65.83" xlink:href="#New_Gradient_Swatch"></linearGradient><linearGradient id="New_Gradient_Swatch-3" x1="188.61" y1="43.22" x2="210.34" y2="63.13" gradientTransform="translate(-2.16)" xlink:href="#New_Gradient_Swatch"></linearGradient></defs><title>icon-user-centric</title><g id="Layer_2" data-name="Layer 2"><g id="Layer_3" data-name="Layer 3"><circle class="cls-1" cx="121.9" cy="53.17" r="51.92"></circle><path class="cls-1" d="M69,22.1A41.06,41.06,0,1,0,68.45,85"></path><path class="cls-1" d="M171.82,86.52a41.07,41.07,0,1,0-.47-66.36"></path><path class="cls-2" d="M121.9,24.11c4,0,7.13,1,9.22,3.05a7.31,7.31,0,0,1,2.12,5.26v6.83a3.26,3.26,0,0,0,.75,2,2.36,2.36,0,0,1,.4.79v5.72a2.75,2.75,0,0,1-.87,1.1,3,3,0,0,0-.82,1.38,20.62,20.62,0,0,1-3.86,7.68l-.32.34v4.88a6.21,6.21,0,0,0,3.21,4.78c1.15.73,6.27,3.41,9.89,5.37a1.66,1.66,0,0,1,.19,2.83,35.3,35.3,0,0,1-39.82,0,1.66,1.66,0,0,1,.2-2.83c3.61-1.91,8.64-4.65,9.86-5.38a6.21,6.21,0,0,0,3.21-4.78V58.2l-.31-.35a20.69,20.69,0,0,1-3.87-7.62,2.85,2.85,0,0,0-.85-1.42,2.86,2.86,0,0,1-.84-1.05V42a2.93,2.93,0,0,1,.43-.82,3.15,3.15,0,0,0,.72-1.93V32.42a7.32,7.32,0,0,1,2.13-5.26c2.09-2,5.2-3.05,9.23-3.05m0-2.5c-4.71,0-8.4,1.27-11,3.76A9.88,9.88,0,0,0,108,32.46v6.8a.61.61,0,0,1-.15.36l0,.06,0,0a5.45,5.45,0,0,0-.79,1.51l-.13.39v6.7l.24.51a5.45,5.45,0,0,0,1.45,1.85.35.35,0,0,1,.08.16,23.12,23.12,0,0,0,4.1,8.26v3.81a3.73,3.73,0,0,1-1.9,2.74l0,0,0,0c-1.09.65-5.83,3.24-9.74,5.31a4.13,4.13,0,0,0-2.22,3.44,4.08,4.08,0,0,0,1.78,3.67,37.83,37.83,0,0,0,42.64,0A4.11,4.11,0,0,0,145,74.47,4.15,4.15,0,0,0,142.79,71l-4.14-2.22c-2.42-1.29-4.91-2.62-5.57-3l-.08,0-.08,0a3.69,3.69,0,0,1-1.9-2.73v-3.8a22.8,22.8,0,0,0,4.09-8.32.7.7,0,0,1,.08-.14,5.47,5.47,0,0,0,1.49-2l.21-.49V41.63l-.1-.35a4.86,4.86,0,0,0-.82-1.6l0,0,0,0a.71.71,0,0,1-.16-.4V32.42a9.89,9.89,0,0,0-2.84-7c-2.61-2.52-6.3-3.79-11-3.79Z"></path><path class="cls-3" d="M44.28,66.12V50.24a.58.58,0,0,0-.1-.32l-2.84-4a.54.54,0,0,0-.76-.13.8.8,0,0,0-.13.13l-2.83,4a.51.51,0,0,0-.1.32l0,19.54a.55.55,0,0,0,.16.38.51.51,0,0,0,.39.15h5.7a.54.54,0,0,0,.55-.52h0V66.12Zm-1.1-15.31V65.59h-4.6V50.81Zm-2.29-3.59,1.77,2.5H39.11Zm-2.31,22V66.69h4.6v2.53Z"></path><path class="cls-4" d="M56.27,39.87H52.9a.55.55,0,0,0-.52.57v1.21H43.75a2.92,2.92,0,0,0-5.82,0H29.39V40.44a.54.54,0,0,0-.51-.57H25.5a.57.57,0,0,0-.55.57v3.38a.56.56,0,0,0,.55.56h3.38a.53.53,0,0,0,.51-.56V42.74h6a11.43,11.43,0,0,0-5.71,7.53H27.76a.53.53,0,0,0-.55.51h0V55a.57.57,0,0,0,.55.57H32a.55.55,0,0,0,.54-.57V50.79a.51.51,0,0,0-.51-.52H30.77a10.35,10.35,0,0,1,7.3-7.44,2.93,2.93,0,0,0,3.71,1.82,2.83,2.83,0,0,0,1.13-.7,2.8,2.8,0,0,0,.7-1.12,10.33,10.33,0,0,1,7.3,7.44H49.68a.56.56,0,0,0-.58.52V55a.58.58,0,0,0,.58.57h4.24A.58.58,0,0,0,54.5,55V50.79a.56.56,0,0,0-.58-.52H52a11.43,11.43,0,0,0-5.71-7.53h6.05v1.08a.54.54,0,0,0,.52.56h3.37a.57.57,0,0,0,.56-.56V40.44A.57.57,0,0,0,56.27,39.87Zm-28,3.42H26V41H28.3Zm3.15,11.22H28.3V51.36h3.15ZM42.13,43.17a1.81,1.81,0,1,1,.54-1.29A1.78,1.78,0,0,1,42.13,43.17ZM53.41,54.51H50.19V51.36h3.22Zm2.32-11.22H53.48V41h2.25Z"></path><g id="Layers"><path class="cls-5" d="M212.26,47.84a1.88,1.88,0,0,1,0,3.33l-3.84,2-10.24,5.34a1.83,1.83,0,0,1-1.73,0l-10.24-5.34-3.84-2a1.88,1.88,0,0,1,0-3.33l14.08-7.35a1.89,1.89,0,0,1,1.73,0Z"></path><path class="cls-5" d="M212.26,58.5l-14.08,7.35a1.89,1.89,0,0,1-1.73,0L182.37,58.5a1.87,1.87,0,0,1,0-3.32l3-1.56a1.89,1.89,0,0,1,1.73,0l9.38,4.89a1.83,1.83,0,0,0,1.73,0l9.37-4.88a1.85,1.85,0,0,1,1.74,0l3,1.55A1.87,1.87,0,0,1,212.26,58.5Z"></path></g></g></g></svg> 