<?xml version="1.0" encoding="UTF-8"?> <svg xmlns="http://www.w3.org/2000/svg" xmlns:xlink="http://www.w3.org/1999/xlink" viewBox="0 0 199.97 121.16"><defs><style>.cls-1,.cls-2,.cls-3,.cls-4,.cls-5{fill:none;stroke-width:2.5px;}.cls-1,.cls-2{stroke:#fff;}.cls-1,.cls-8{opacity:0.3;}.cls-2,.cls-3,.cls-4,.cls-5{stroke-linecap:round;stroke-linejoin:round;}.cls-3{stroke:url(#New_Gradient_Swatch);}.cls-4{stroke:url(#New_Gradient_Swatch-2);}.cls-5{stroke:url(#New_Gradient_Swatch-3);}.cls-6{fill:url(#New_Gradient_Swatch-4);}.cls-7{fill:#fff;}</style><linearGradient id="New_Gradient_Swatch" x1="88.23" y1="87.47" x2="106.69" y2="104.39" gradientUnits="userSpaceOnUse"><stop offset="0" stop-color="#d400ff"></stop><stop offset="1" stop-color="#7600ff"></stop></linearGradient><linearGradient id="New_Gradient_Swatch-2" x1="55.36" y1="89.94" x2="71.13" y2="104.39" xlink:href="#New_Gradient_Swatch"></linearGradient><linearGradient id="New_Gradient_Swatch-3" x1="17.94" y1="87.51" x2="36.37" y2="104.39" xlink:href="#New_Gradient_Swatch"></linearGradient><linearGradient id="New_Gradient_Swatch-4" x1="131.95" y1="23.28" x2="172.38" y2="60.32" xlink:href="#New_Gradient_Swatch"></linearGradient></defs><title>icon-app-dev</title><g id="Layer_2" data-name="Layer 2"><g id="Layer_3" data-name="Layer 3"><rect class="cls-1" x="1.25" y="41.68" width="121.55" height="78.24" rx="7" ry="7"></rect><path class="cls-1" d="M113.18,33.91V8.25a7,7,0,0,1,7-7h71.54a7,7,0,0,1,7,7V49.31a7,7,0,0,1-7,7h-8.64"></path><rect class="cls-2" x="13.62" y="56.32" width="45.09" height="16.85"></rect><line class="cls-2" x1="66.06" y1="58.36" x2="103.68" y2="58.36"></line><line class="cls-2" x1="66.06" y1="64.74" x2="109.96" y2="64.74"></line><line class="cls-2" x1="66.06" y1="70.9" x2="103.68" y2="70.9"></line><path class="cls-3" d="M97.46,84.66h0a11.27,11.27,0,0,1,11.27,11.27h0a11.27,11.27,0,0,1-11.27,11.28h0A11.27,11.27,0,0,1,86.19,95.93h0a11.28,11.28,0,0,1,6.87-10.38"></path><path class="cls-4" d="M61.9,84.66h0A11.28,11.28,0,0,1,73.17,95.93h0A11.28,11.28,0,0,1,61.9,107.21h0a11.3,11.3,0,0,1-10.48-7.09"></path><path class="cls-5" d="M27.13,84.66A11.28,11.28,0,0,1,38.41,95.93h0a11.28,11.28,0,0,1-11.28,11.28h0A11.28,11.28,0,0,1,15.86,95.93h0a11.18,11.18,0,0,1,2.24-6.74"></path><path class="cls-6" d="M135.63,66.26h25.2a5,5,0,0,0,4.9-5V57.74h6.87a4.85,4.85,0,0,0,4.87-4.85V24.41a1,1,0,0,0-.31-.76L166.27,13.4a1,1,0,0,0-.7-.31H147.4a5,5,0,0,0-4.9,5v3.55h-6.87a4.87,4.87,0,0,0-4.87,4.86V61.3A4.93,4.93,0,0,0,135.63,66.26ZM154.89,25l7.21,6.81h-5.71a1.52,1.52,0,0,1-1.5-1.52V25Zm11.74-8.43,7.23,6.85h-5.71a1.57,1.57,0,0,1-1.52-1.6Zm-22.06,1.49a2.88,2.88,0,0,1,2.83-2.9h17.17v6.66a3.63,3.63,0,0,0,3.58,3.66h7.26V52.86a2.8,2.8,0,0,1-2.79,2.82h-6.89V32.84a1.05,1.05,0,0,0-.32-.75l-10.9-10.21a1,1,0,0,0-.7-.27h-9.24Zm-11.75,8.43a2.79,2.79,0,0,1,2.78-2.81h17.22v6.58a3.58,3.58,0,0,0,3.54,3.61h7.3V61.3a2.88,2.88,0,0,1-2.83,2.9h-25.2a2.87,2.87,0,0,1-2.81-2.9Z"></path><polygon class="cls-7" points="144.27 51.15 139.86 46.74 144.27 42.33 142.81 40.87 136.94 46.74 142.81 52.61 144.27 51.15"></polygon><polygon class="cls-7" points="153.55 52.61 159.42 46.74 153.55 40.87 152.09 42.33 156.5 46.74 152.09 51.15 153.55 52.61"></polygon><rect class="cls-7" x="139.82" y="45.71" width="16.71" height="2.06" transform="translate(64.24 177.49) rotate(-74.81)"></rect><g class="cls-8"><path class="cls-7" d="M70.17,11.39,71,14a.5.5,0,0,0,.3.3,6.13,6.13,0,0,1,1.17.49.4.4,0,0,0,.42,0l2.4-1.22L76.81,15l-1.23,2.41a.43.43,0,0,0,0,.41A9.18,9.18,0,0,1,76.07,19a.49.49,0,0,0,.29.29l2.56.82v2.16l-2.56.82a.42.42,0,0,0-.29.29,7.1,7.1,0,0,1-.49,1.16.5.5,0,0,0,0,.43l1.23,2.41-1.53,1.52-2.4-1.22a.46.46,0,0,0-.2,0,.54.54,0,0,0-.21,0,8.39,8.39,0,0,1-1.17.48.46.46,0,0,0-.29.29l-.84,2.56H68l-.83-2.56a.44.44,0,0,0-.29-.29,6.19,6.19,0,0,1-1.17-.49.45.45,0,0,0-.2,0,.52.52,0,0,0-.21,0l-2.41,1.22L61.37,27.4,62.59,25a.46.46,0,0,0,0-.41,8.63,8.63,0,0,1-.5-1.18.44.44,0,0,0-.29-.29l-2.56-.83V20.14l2.56-.83a.42.42,0,0,0,.29-.3,6.17,6.17,0,0,1,.48-1.16.45.45,0,0,0,0-.42L61.38,15l1.53-1.53,2.39,1.23a.35.35,0,0,0,.2,0,.46.46,0,0,0,.23-.06,6.06,6.06,0,0,1,1.17-.49.46.46,0,0,0,.29-.29L68,11.39h2.16M69.09,25.53A4.3,4.3,0,0,0,69.65,17l-.56,0a4.29,4.29,0,0,0-3.42,6.91,4.26,4.26,0,0,0,2.84,1.65c.2,0,.39,0,.58,0M70.17,9.89H68a1.5,1.5,0,0,0-1.43,1L65.92,13l-.41.17-1.91-1a1.53,1.53,0,0,0-.69-.17,1.49,1.49,0,0,0-1.06.44L60.32,14A1.51,1.51,0,0,0,60,15.72l1,1.93c-.06.13-.11.26-.16.4l-2.06.67a1.49,1.49,0,0,0-1,1.42V22.3a1.5,1.5,0,0,0,1,1.43l2.07.67c.06.13.11.26.16.38l-1,1.94a1.49,1.49,0,0,0,.27,1.74L61.83,30a1.49,1.49,0,0,0,1.06.44,1.51,1.51,0,0,0,.68-.16l1.94-1,.4.16.66,2.07a1.52,1.52,0,0,0,1.43,1h2.16a1.5,1.5,0,0,0,1.43-1l.68-2.07.38-.16,1.94,1a1.51,1.51,0,0,0,.68.16A1.52,1.52,0,0,0,76.33,30l1.53-1.52a1.52,1.52,0,0,0,.28-1.75l-1-1.94c0-.13.11-.26.16-.4l2.07-.66a1.49,1.49,0,0,0,1-1.43V20.15a1.5,1.5,0,0,0-1-1.43l-2.07-.66c0-.13-.11-.26-.16-.38l1-2A1.51,1.51,0,0,0,77.87,14l-1.53-1.52A1.49,1.49,0,0,0,75.28,12a1.52,1.52,0,0,0-.68.17l-1.93,1L72.26,13l-.66-2.06a1.5,1.5,0,0,0-1.43-1ZM69.09,24l-.4,0a2.71,2.71,0,0,1-1.82-1.06,2.8,2.8,0,0,1,2.22-4.51,2.36,2.36,0,0,1,.37,0A2.8,2.8,0,0,1,69.09,24Z"></path></g><g class="cls-8"><path class="cls-7" d="M90.82,3.07,91.44,5a.39.39,0,0,0,.22.23,4.06,4.06,0,0,1,.88.36.29.29,0,0,0,.16,0,.34.34,0,0,0,.16,0l1.8-.91,1.15,1.14-.93,1.81a.32.32,0,0,0,0,.3,6.48,6.48,0,0,1,.37.89.4.4,0,0,0,.22.22l1.92.61v1.62l-1.92.62a.31.31,0,0,0-.22.22,5.06,5.06,0,0,1-.37.87.4.4,0,0,0,0,.32l.93,1.81-1.15,1.14-1.8-.92a.32.32,0,0,0-.31,0,5.05,5.05,0,0,1-.88.36.35.35,0,0,0-.21.22l-.63,1.92H89.2l-.63-1.92a.33.33,0,0,0-.21-.22,4.22,4.22,0,0,1-.88-.37.41.41,0,0,0-.16,0,.4.4,0,0,0-.15,0l-1.81.92-1.14-1.15.92-1.79a.34.34,0,0,0,0-.31,7.62,7.62,0,0,1-.37-.88.32.32,0,0,0-.22-.22l-1.92-.62V9.64L84.56,9a.32.32,0,0,0,.22-.22,4.43,4.43,0,0,1,.36-.87.36.36,0,0,0,0-.32l-.91-1.79,1.15-1.15,1.79.92a.24.24,0,0,0,.15,0,.47.47,0,0,0,.17,0,4.15,4.15,0,0,1,.88-.37A.34.34,0,0,0,88.59,5l.61-1.92h1.62M90,13.68a3.23,3.23,0,0,0,.42-6.43l-.42,0a3.22,3.22,0,0,0-2.56,5.19,3.18,3.18,0,0,0,2.13,1.24l.43,0m.81-12.11H89.2a1.5,1.5,0,0,0-1.43,1L87.34,4l-1.28-.65a1.48,1.48,0,0,0-1.74.27L83.17,4.75a1.51,1.51,0,0,0-.28,1.74l.65,1.28-1.36.44a1.49,1.49,0,0,0-1,1.42v1.62a1.5,1.5,0,0,0,1,1.43l1.37.45-.65,1.27a1.49,1.49,0,0,0,.27,1.74l1.14,1.15a1.49,1.49,0,0,0,1.06.44,1.51,1.51,0,0,0,.68-.16l1.29-.65.44,1.36a1.5,1.5,0,0,0,1.43,1h1.62a1.5,1.5,0,0,0,1.42-1l.45-1.37,1.28.65a1.52,1.52,0,0,0,.68.17,1.49,1.49,0,0,0,1.06-.44l1.14-1.14a1.47,1.47,0,0,0,.28-1.74l-.65-1.29,1.37-.44a1.49,1.49,0,0,0,1-1.43V9.64a1.5,1.5,0,0,0-1-1.43l-1.37-.43.66-1.29a1.49,1.49,0,0,0-.28-1.75L95.71,3.6a1.5,1.5,0,0,0-1-.43,1.48,1.48,0,0,0-.68.16L92.69,4l-.44-1.38a1.49,1.49,0,0,0-1.43-1ZM90,12.18l-.26,0a1.73,1.73,0,0,1-1.45-1.95A1.73,1.73,0,0,1,90,8.72l.23,0A1.73,1.73,0,0,1,90,12.18Z"></path></g><g class="cls-8"><path class="cls-7" d="M158.2,80.8l.91,2.84a.56.56,0,0,0,.33.34,6.57,6.57,0,0,1,1.3.54.49.49,0,0,0,.23.06.53.53,0,0,0,.24-.06l2.67-1.35,1.71,1.69-1.37,2.68a.47.47,0,0,0,0,.46,10,10,0,0,1,.54,1.31.56.56,0,0,0,.32.32l2.85.91V93l-2.85.91a.49.49,0,0,0-.32.32,8,8,0,0,1-.54,1.29.54.54,0,0,0,0,.48l1.36,2.68-1.7,1.69L161.2,99a.46.46,0,0,0-.23-.06.49.49,0,0,0-.23.06,9.77,9.77,0,0,1-1.3.53.53.53,0,0,0-.32.32l-.93,2.85h-2.41l-.92-2.85a.53.53,0,0,0-.32-.32,7,7,0,0,1-1.31-.54.44.44,0,0,0-.22,0,.46.46,0,0,0-.23,0l-2.68,1.35-1.69-1.7L149.76,96a.5.5,0,0,0,0-.46,9.23,9.23,0,0,1-.55-1.31.5.5,0,0,0-.33-.32l-2.84-.92V90.53l2.85-.92a.5.5,0,0,0,.32-.34,7.15,7.15,0,0,1,.53-1.29.47.47,0,0,0,0-.46l-1.34-2.66,1.7-1.7,2.66,1.36a.43.43,0,0,0,.22.06.68.68,0,0,0,.26-.07,6.62,6.62,0,0,1,1.3-.54.53.53,0,0,0,.32-.33l.91-2.84h2.41M157,96.53a4.79,4.79,0,0,0,.63-9.54c-.21,0-.42,0-.63,0a4.78,4.78,0,0,0-3.8,7.7,4.9,4.9,0,0,0,3.8,1.88M158.2,79.3h-2.41a1.5,1.5,0,0,0-1.43,1l-.75,2.37a5.72,5.72,0,0,0-.6.25l-2.2-1.14a1.55,1.55,0,0,0-.69-.16,1.52,1.52,0,0,0-1.06.43l-1.7,1.71a1.49,1.49,0,0,0-.28,1.73l1.12,2.22c-.09.2-.17.39-.24.59l-2.37.77a1.49,1.49,0,0,0-1,1.42v2.4a1.48,1.48,0,0,0,1,1.43l2.39.78c.07.19.15.37.24.56l-1.14,2.23a1.49,1.49,0,0,0,.27,1.74l1.69,1.7a1.51,1.51,0,0,0,1.07.44,1.44,1.44,0,0,0,.67-.16l2.24-1.13a5.89,5.89,0,0,0,.58.24l.77,2.37a1.49,1.49,0,0,0,1.42,1h2.41a1.5,1.5,0,0,0,1.42-1l.78-2.38q.29-.11.57-.24l2.23,1.14a1.51,1.51,0,0,0,.68.16,1.52,1.52,0,0,0,1.06-.43l1.7-1.69a1.5,1.5,0,0,0,.28-1.75l-1.14-2.23c.08-.18.16-.38.24-.58l2.38-.76a1.5,1.5,0,0,0,1-1.43V90.54a1.5,1.5,0,0,0-1-1.43L166,88.35c-.08-.2-.15-.39-.23-.57l1.14-2.24a1.5,1.5,0,0,0-.28-1.75l-1.7-1.69a1.52,1.52,0,0,0-1.06-.43,1.51,1.51,0,0,0-.68.16L161,83a6.07,6.07,0,0,0-.59-.24l-.76-2.38a1.5,1.5,0,0,0-1.43-1ZM157,95l-.46,0a3.21,3.21,0,0,1-2.14-1.26,3.28,3.28,0,0,1,2.6-5.29,3.11,3.11,0,0,1,.43,0A3.29,3.29,0,0,1,157,95Z"></path></g></g></g></svg> 