<?xml version="1.0" encoding="UTF-8"?> <svg xmlns="http://www.w3.org/2000/svg" width="98" height="80" viewBox="0 0 98 80"><defs><style> .cls-2{fill:#fff} </style></defs><g id="Icon-aws" transform="translate(-375.256 -565.159)"><path id="Frame" fill="none" d="M0 0H98V80H0z" transform="translate(375.256 565.159)"></path><g id="Group_164" transform="translate(-4.698 -6.159)"><path id="Path_1127" d="M467.439 583.8l-.065-.014c-.01 0-.014-.005-.019-.005a15.078 15.078 0 0 0-27.88-3.6 6.718 6.718 0 0 0-.7-.145 7.19 7.19 0 0 0-1.109-.089 7.438 7.438 0 0 0-1.978.272c-.168.046-.337.1-.5.154-.23.084-.454.173-.665.271a7.508 7.508 0 0 0-3.648 3.653 6.925 6.925 0 0 0-.271.664c-.056.164-.112.332-.159.5a7.589 7.589 0 0 0-.271 1.978 7.8 7.8 0 0 0 .065 1.23c.023.131.047.248.07.36a8.836 8.836 0 0 0-7.857 7.058c-.052.271-.094.552-.122.837s-.042.571-.042.856a8.045 8.045 0 0 0 .047.894 8.611 8.611 0 0 0 .131.865 8.825 8.825 0 0 0 .514 1.641c.112.262.239.52.374.768a8.888 8.888 0 0 0 4.3 3.9 8.67 8.67 0 0 0 3.4.692h3.092l2.773-1.98-3.915-.031h-1.782a6.866 6.866 0 0 1-5.528-2.853c-.093-.126-.183-.257-.267-.393a7.26 7.26 0 0 1-.584-1.174 6.765 6.765 0 0 1-.454-2.418 6.694 6.694 0 0 1 .543-2.652c.084-.2.182-.4.285-.594a7.018 7.018 0 0 1 .973-1.347 6.846 6.846 0 0 1 5.032-2.24h.426a.91.91 0 0 0 .762-.374.413.413 0 0 0 .047-.075.969.969 0 0 0 .066-.814.969.969 0 0 1-.042-.117l-.029-.089a6.147 6.147 0 0 1-.346-1.955 5.569 5.569 0 0 1 5.561-5.566 6.17 6.17 0 0 1 1 .075 4.752 4.752 0 0 1 .725.173l.085.024c.06.018.121.037.182.06a.881.881 0 0 0 .818-.06c.024-.015.047-.033.075-.052a1.089 1.089 0 0 0 .145-.15.956.956 0 0 0 .126-.219 12.889 12.889 0 0 1 6.062-6.207 13.211 13.211 0 0 1 12.366.374 13.332 13.332 0 0 1 6.45 8.863 1.149 1.149 0 0 0 .108.267 1.077 1.077 0 0 0 .168.22 1 1 0 0 0 .5.276 9.347 9.347 0 0 1 3.914 1.412 9.652 9.652 0 0 1 3.8 11.656c-.108.271-.224.542-.36.8a9.642 9.642 0 0 1-3.237 3.676c-.168.113-.341.22-.537.332a7.761 7.761 0 0 1-.791.407 8.669 8.669 0 0 1-.987.388 9.3 9.3 0 0 1-2.058.426.905.905 0 0 0-.163.014 2.017 2.017 0 0 0-.225-.014h-15.365l-1.857 1.927h17.224a1.509 1.509 0 0 0 .491-.084h.01a11.306 11.306 0 0 0 4.092-1.165 11.441 11.441 0 0 0-2.989-21.5z" class="cls-2" transform="translate(.165)"></path><path id="Path_1128" d="M417.005 626.046l-.029-.041a.647.647 0 0 0 0-.165v-.05l-.005-.023a.609.609 0 0 0-.081-.136l-.135-.135h-.055l-.081-.041-.115-.04h-.3l-34.72 7.518a.68.68 0 0 0-.17 1.265l9.642 5.026 1.555 9.744a.68.68 0 0 0 .055.178v.04l.007.013a.7.7 0 0 0 .132.165.709.709 0 0 0 .149.1l.012.006h.079a.653.653 0 0 0 .187 0 .683.683 0 0 0 .257.055h.056l.117-.046 6.753-4.156 6.947 4.565a.681.681 0 0 0 .942-.193.711.711 0 0 0 .071-.14l8.7-23.251a.683.683 0 0 0 .04-.218v-.02zm-5.613 1.754l-19.815 10.214-7.957-4.155zm3.467.143L407.3 648.25l-10.519-6.9zm-5.742 2.558l-13.983 10.322a.625.625 0 0 0-.1.1.7.7 0 0 0-.116.212l-1.516 4.737-1.073-6.712zm-10.074 13.989l-4.654 2.835 1.557-4.9z" class="cls-2" transform="translate(0 .321)"></path><path id="Path_1129" d="M412.577 619.529a.83.83 0 0 1-.832-.819.807.807 0 0 1 .8-.818h.027a7.419 7.419 0 0 0 2.835-.557.818.818 0 1 1 .622 1.514 9.054 9.054 0 0 1-3.452.68zm-3.194-.638a.825.825 0 0 1-.316-.063 9.088 9.088 0 0 1-2.946-1.983.818.818 0 0 1 1.161-1.154 7.447 7.447 0 0 0 2.417 1.626.819.819 0 0 1-.316 1.574zm9.032-1.768a.819.819 0 0 1-.577-1.4 7.4 7.4 0 0 0 1.629-2.415.819.819 0 0 1 1.51.633 9.069 9.069 0 0 1-1.985 2.944.819.819 0 0 1-.577.238zm-13.5-2.727a.818.818 0 0 1-.757-.507 9.042 9.042 0 0 1-.684-3.466v-.045a.82.82 0 0 1 .818-.79.818.818 0 0 1 .818.818v.028a7.436 7.436 0 0 0 .56 2.831.819.819 0 0 1-.756 1.131zm15.953-3.137a.8.8 0 0 1-.818-.8h.818l-.818-.009a7.483 7.483 0 0 0-.566-2.882.818.818 0 0 1 1.512-.627 9.058 9.058 0 0 1 .69 3.484.833.833 0 0 1-.822.834zm-15.942-3.2a.821.821 0 0 1-.755-1.134 9.078 9.078 0 0 1 1.98-2.948.818.818 0 0 1 1.156 1.159 7.468 7.468 0 0 0-1.625 2.419.819.819 0 0 1-.76.501zm13.518-2.672a.818.818 0 0 1-.58-.24 7.449 7.449 0 0 0-2.42-1.622.818.818 0 1 1 .629-1.511 9.08 9.08 0 0 1 2.95 1.976.818.818 0 0 1-.579 1.4zm-9.025-1.8A.818.818 0 0 1 409.1 602a9.048 9.048 0 0 1 3.475-.687.818.818 0 1 1 .008 1.637h-.008a7.413 7.413 0 0 0-2.85.563.822.822 0 0 1-.31.066z" class="cls-2" transform="translate(.048 .157)"></path><path id="Path_1130" d="M392.217 624.5a.817.817 0 0 1-.573-1.4 6.745 6.745 0 0 1 1.578-1.018.818.818 0 1 1 .742 1.459 5.8 5.8 0 0 0-1.187.74.823.823 0 0 1-.56.219z" class="cls-2" transform="translate(0 .212)"></path><path id="Path_1131" d="M396.618 622.457a.819.819 0 0 1-.237-1.6c.983-.3 2.07-.567 3.231-.8a.819.819 0 1 1 .32 1.606c-1.109.22-2.144.475-3.076.758a.818.818 0 0 1-.238.036zm6.362-1.3a.818.818 0 0 1-.1-1.63c.689-.089 1.41-.169 2.143-.237.341-.032.708-.072 1.1-.119a.818.818 0 1 1 .2 1.625c-.4.049-.787.09-1.142.124-.713.066-1.415.144-2.086.23a.75.75 0 0 1-.115.009zm19.1-3.92a.818.818 0 0 1-.245-1.6c1.036-.326 2.066-.67 3.059-1.022a.819.819 0 0 1 .547 1.543c-1.012.358-2.06.708-3.115 1.04a.809.809 0 0 1-.25.041zm6.133-2.178a.819.819 0 0 1-.305-1.579c1.02-.408 2.014-.834 2.957-1.264a.818.818 0 1 1 .679 1.489c-.965.441-1.984.877-3.027 1.3a.818.818 0 0 1-.308.056zm5.914-2.712a.818.818 0 0 1-.383-1.542c.977-.515 1.911-1.048 2.775-1.584a.818.818 0 1 1 .863 1.391c-.9.556-1.864 1.108-2.875 1.641a.813.813 0 0 1-.384.096zm5.51-3.444a.818.818 0 0 1-.492-1.472 26.275 26.275 0 0 0 2.4-2.037.819.819 0 0 1 1.136 1.18 27.963 27.963 0 0 1-2.555 2.164.814.814 0 0 1-.493.167zm4.634-4.526a.819.819 0 0 1-.656-1.307 13.742 13.742 0 0 0 1.556-2.631.819.819 0 0 1 1.5.664 15.5 15.5 0 0 1-1.74 2.945.819.819 0 0 1-.664.331z" class="cls-2" transform="translate(.055 .161)"></path><path id="Path_1132" d="M446.814 598.51a.775.775 0 0 1-.118-.009.818.818 0 0 1-.692-.928 10.611 10.611 0 0 0 .109-1.513.818.818 0 1 1 1.637 0 12.166 12.166 0 0 1-.127 1.749.817.817 0 0 1-.809.701z" class="cls-2" transform="translate(.114 .099)"></path></g></g></svg> 