<?xml version="1.0" encoding="UTF-8"?> <svg xmlns="http://www.w3.org/2000/svg" viewBox="0 0 90.71 73.96"><defs><style>.cls-1{fill:#00efd1;}.cls-2{fill:#fedb41;}.cls-3{fill:#083863;}.cls-4,.cls-5{fill:#fff;}.cls-4{opacity:0.6;}</style></defs><title>icon-contact</title><g id="Layer_2" data-name="Layer 2"><g id="Layer_3" data-name="Layer 3"><g id="Message"><path class="cls-1" d="M32.49,40.39h0c0,.06.05.13.08.19A1.07,1.07,0,0,1,32.49,40.39Zm44.31,0a.36.36,0,0,1,0,.11l0-.11Zm-44.31,0h0c0,.06.05.13.08.19A1.07,1.07,0,0,1,32.49,40.39Zm44.31,0a.36.36,0,0,1,0,.11l0-.11Zm-44.31,0h0c0,.06.05.13.08.19A1.07,1.07,0,0,1,32.49,40.39Zm44.31,0a.36.36,0,0,1,0,.11l0-.11Z"></path><path class="cls-2" d="M32.49,40.39h0c0,.06.05.13.08.19A1.07,1.07,0,0,1,32.49,40.39Zm44.31,0a.36.36,0,0,1,0,.11l0-.11Z"></path><path class="cls-3" d="M76.8,40.39a.36.36,0,0,1,0,.11l0-.11Zm-44.31,0h0c0,.06.05.13.08.19A1.07,1.07,0,0,1,32.49,40.39Z"></path><path class="cls-4" d="M89.45,0H16.82a1.3,1.3,0,0,0-1.25,1.32V20.78H2.81A2.81,2.81,0,0,0,0,23.59V71.15A2.81,2.81,0,0,0,2.81,74a2.87,2.87,0,0,0,1.65-.53l11.3-8.09H57.29a2.81,2.81,0,0,0,2.82-2.81V53H72.56L88.72,64.59a1.34,1.34,0,0,0,.73.23,1.27,1.27,0,0,0,1.26-1.27V1.32A1.31,1.31,0,0,0,89.45,0ZM57.29,62.53H15.17a.88.88,0,0,0-.58.19L2.81,71.15V23.59H15.57V51.73A1.25,1.25,0,0,0,16.82,53H57.29Zm30.89-1.44L73.69,50.71a1.21,1.21,0,0,0-.73-.24H18.1V2.53H88.18Z"></path><path class="cls-5" d="M69.76,11.05H36.71A4.67,4.67,0,0,0,32,15.66V37.19a4.77,4.77,0,0,0,4.69,4.66h33a4.52,4.52,0,0,0,4.55-4.66V15.66A4.54,4.54,0,0,0,69.76,11.05ZM72,15.66v.26L55.33,29a3.23,3.23,0,0,1-4,0L34.28,15.92v-.26a2.42,2.42,0,0,1,2.43-2.35h33A2.3,2.3,0,0,1,72,15.66Zm0,3.14V35.88l-9.73-9.44Zm-37.72,0,10,7.72-10,9.44Zm-.86,19.59h0a.44.44,0,0,0,.06.16A1.11,1.11,0,0,1,33.42,38.36Zm36.29,1.23h-33a2.4,2.4,0,0,1-1.89-1L46.2,27.9,50,30.82a5.48,5.48,0,0,0,6.75,0l3.79-3L71.61,38.61A2.38,2.38,0,0,1,69.71,39.59ZM73,38.46a.69.69,0,0,0,0-.1h0Z"></path></g></g></g></svg> 