<?xml version="1.0" encoding="UTF-8"?> <svg xmlns="http://www.w3.org/2000/svg" width="98" height="80" viewBox="0 0 98 80"><defs><style> .cls-3{fill:#fff} </style></defs><g id="Icon-poc" transform="translate(-375.256 -565.159)"><path id="Frame" fill="none" d="M0 0H98V80H0z" transform="translate(375.256 565.159)"></path><g id="Path" transform="translate(-309.439 -6.041)"><path id="Path_1159" fill="none" stroke="#fff" stroke-linecap="round" stroke-miterlimit="10" stroke-width="1.25px" d="M701.021 627.246l3.127 4.2 10.943-9.673"></path><path id="Path_1160" d="M764.964 591.917a.819.819 0 0 0-1.158-.012l-.046.05-.048.048c-.061.058-.126.113-.192.166s-.142.106-.217.153c-.076.048-.152.093-.232.133a2.677 2.677 0 0 1-.249.112 2.633 2.633 0 0 1-.259.087c-.087.023-.174.042-.262.057h-.007a2.218 2.218 0 0 1-.27.035c-.061.005-.124.007-.185.007a2.565 2.565 0 0 1-.275-.013 2.5 2.5 0 0 1-.265-.042h-.007c-.088-.017-.174-.041-.262-.067-.085-.026-.17-.055-.253-.089a2.573 2.573 0 0 1-.243-.115 2.427 2.427 0 0 1-.233-.144 2.39 2.39 0 0 1-.215-.16 2.7 2.7 0 0 1-.2-.182c-.063-.064-.124-.131-.179-.2-.054-.069-.108-.142-.156-.217a2.426 2.426 0 0 1-.134-.231 2.5 2.5 0 0 1-.109-.243 2.612 2.612 0 0 1-.087-.253 2.6 2.6 0 0 1-.057-.259 2.33 2.33 0 0 1-.035-.261v.005c-.005-.072-.01-.14-.01-.2 0-.086.007-.176.016-.269a2.534 2.534 0 0 1 .039-.262 2.458 2.458 0 0 1 .064-.259 2.412 2.412 0 0 1 .09-.25 2.672 2.672 0 0 1 .118-.24c.044-.079.093-.153.144-.227a2.621 2.621 0 0 1 .163-.214 2.519 2.519 0 0 1 .189-.2c.064-.061.131-.12.2-.176s.146-.107.224-.156a2.633 2.633 0 0 1 .237-.135c.081-.04.163-.075.249-.108.084-.032.169-.059.255-.083s.177-.045.265-.06c.032-.006.066-.008.1-.012.058-.007.116-.016.174-.02h.007c.062-.005.122-.01.185-.01a2.593 2.593 0 0 1 .275.016 2.553 2.553 0 0 1 .268.042 2.7 2.7 0 0 1 .518.157 2.657 2.657 0 0 1 .246.118 2.484 2.484 0 0 1 .234.141 2.529 2.529 0 0 1 .214.163c.067.055.131.112.192.173l.009.007a.817.817 0 0 0 1.389-.774v-8.382a.82.82 0 0 0-.819-.819h-7.133a4.273 4.273 0 0 0 .348-1.687 4.362 4.362 0 0 0-4.368-4.33.814.814 0 0 0-.582.243 4.128 4.128 0 0 0-3.437 5.775h-7.135a.818.818 0 0 0-.818.818v7.052a4.383 4.383 0 0 0-1.717-.349 4.328 4.328 0 1 0 0 8.656 4.388 4.388 0 0 0 1.714-.353v7.032a.819.819 0 0 0 .818.819h8.68a.76.76 0 0 0 .116-.01c.021 0 .042-.005.063-.009l.047-.014a.814.814 0 0 0 .264-1.444c-.055-.058-.109-.116-.159-.177a2.622 2.622 0 0 1-.156-.218 2.654 2.654 0 0 1-.135-.23c-.041-.081-.079-.163-.112-.247a2.438 2.438 0 0 1-.086-.253c-.024-.086-.042-.171-.058-.259-.014-.084-.025-.168-.032-.252v-.014c0-.066-.006-.131-.006-.188a2.586 2.586 0 0 1 .016-.272 2.489 2.489 0 0 1 .038-.259 2.543 2.543 0 0 1 .068-.263 2.472 2.472 0 0 1 .092-.249c.036-.082.075-.161.119-.24a2.578 2.578 0 0 1 .14-.23 2.67 2.67 0 0 1 .167-.214 2.481 2.481 0 0 1 .185-.2 2.623 2.623 0 0 1 .2-.179 2.666 2.666 0 0 1 .22-.157c.076-.048.154-.091.234-.131a2.55 2.55 0 0 1 .249-.112h.007a2.666 2.666 0 0 1 .256-.087c.088-.024.176-.042.265-.057a2.239 2.239 0 0 1 .272-.035c.062-.005.126-.007.188-.007a2.545 2.545 0 0 1 .544.055 2.505 2.505 0 0 1 .266.067c.087.026.172.058.255.092s.165.073.244.116.158.093.233.143.148.106.217.163c.07.059.134.122.2.186s.12.128.176.2c.056.07.107.144.157.221s.1.153.137.233a2.616 2.616 0 0 1 .109.243v.007a2.486 2.486 0 0 1 .086.252c.024.086.046.173.061.259a2.667 2.667 0 0 1 .032.265c0 .067.006.131.006.189a2.558 2.558 0 0 1-.013.272 2.609 2.609 0 0 1-.041.259c-.018.088-.041.174-.067.259s-.058.171-.093.253-.075.161-.118.239-.09.157-.141.231-.108.145-.166.214c-.044.051-.091.1-.138.145a.839.839 0 0 0-.182.208.814.814 0 0 0 .881 1.242h8.5a.819.819 0 0 0 .819-.819v-8.413a.817.817 0 0 0-.196-.776zm-7.74 8.362a4.016 4.016 0 0 0 .15-.409 4.212 4.212 0 0 0 .109-.422 4.151 4.151 0 0 0 .067-.432c.013-.138.022-.281.022-.428q0-.157-.009-.3v-.014a4.1 4.1 0 0 0-.055-.428 3.913 3.913 0 0 0-.1-.419 4.165 4.165 0 0 0-.137-.409c-.053-.134-.111-.266-.176-.393a4.3 4.3 0 0 0-.218-.371 4.3 4.3 0 0 0-.256-.351 4.155 4.155 0 0 0-.287-.323c-.1-.1-.205-.2-.316-.294-.11-.091-.225-.178-.345-.259a4.272 4.272 0 0 0-.371-.227c-.128-.069-.26-.133-.393-.189a4.34 4.34 0 0 0-.409-.147c-.138-.041-.28-.077-.423-.105a4.028 4.028 0 0 0-.428-.064c-.143-.015-.288-.022-.435-.023-.106 0-.212.005-.317.014-.143.011-.286.026-.428.051a4.1 4.1 0 0 0-.419.093c-.14.039-.277.082-.412.134s-.267.111-.4.176a4.244 4.244 0 0 0-.377.214 4.149 4.149 0 0 0-.355.253 4.2 4.2 0 0 0-.326.284c-.106.1-.207.207-.3.317s-.18.224-.262.342a4.325 4.325 0 0 0-.23.371 4.268 4.268 0 0 0-.192.39 4.216 4.216 0 0 0-.151.406 4.277 4.277 0 0 0-.1.422 3.892 3.892 0 0 0-.067.429c-.013.139-.022.282-.022.429q0 .156.009.3v.01a3.979 3.979 0 0 0 .055.435 3.91 3.91 0 0 0 .1.415c.039.139.087.277.14.412.015.039.035.076.051.115h-6.318V592.7a.815.815 0 0 0-1.245-.894.783.783 0 0 0-.2.172 2.756 2.756 0 0 1-1.911.776 2.691 2.691 0 1 1 0-5.382 2.742 2.742 0 0 1 1.911.773.81.81 0 0 0 .61.29h.012a.818.818 0 0 0 .818-.955v-7.629h7.793a.812.812 0 0 0 .652-.236c.021-.021.037-.046.056-.069s.03-.034.044-.054.015-.027.022-.041a.8.8 0 0 0-.175-1.043 2.666 2.666 0 0 1-.788-1.882 2.7 2.7 0 0 1 2.731-2.69h.006a2.678 2.678 0 0 1 1.941 4.571.811.811 0 0 0-.3.614.8.8 0 0 0 .118.43l.011.022a.9.9 0 0 0 .055.071c.015.019.027.039.044.057a.814.814 0 0 0 .668.25h7.787v6.229h-.011q-.2-.084-.409-.147a4.351 4.351 0 0 0-.426-.106 4.344 4.344 0 0 0-.43-.067 4.093 4.093 0 0 0-.432-.022c-.1 0-.209.005-.314.013-.143.012-.285.03-.427.054-.143.025-.286.058-.425.1-.141.039-.278.086-.413.138a4.222 4.222 0 0 0-.4.176 4.176 4.176 0 0 0-.381.214c-.121.077-.237.159-.352.249-.113.09-.222.184-.326.285a4.332 4.332 0 0 0-.3.32c-.093.11-.18.224-.262.342a4.107 4.107 0 0 0-.23.368 4.2 4.2 0 0 0-.189.387 4.173 4.173 0 0 0-.147.406c-.043.14-.08.281-.109.422a4.136 4.136 0 0 0-.067.429c-.013.139-.022.281-.022.428 0 .1 0 .2.009.3v.013a4.155 4.155 0 0 0 .054.431 4.041 4.041 0 0 0 .1.422 4.212 4.212 0 0 0 .14.41c.053.134.111.265.176.393a4.131 4.131 0 0 0 .217.375c.078.119.162.238.253.351s.187.221.287.323.212.205.323.3.226.178.346.259c.12.081.243.158.371.227s.26.133.393.189c.133.055.267.1.406.147.137.041.277.077.419.105a4.119 4.119 0 0 0 .432.064c.142.015.288.022.435.023.105 0 .211-.005.315-.013.143-.01.286-.03.428-.054s.284-.055.423-.093c.139-.039.278-.086.412-.138.047-.017.091-.041.137-.06v6.238z" class="cls-3"></path><path id="Path_1161" d="M742.636 591.917a.819.819 0 0 0-1.158-.012l-.046.05-.048.048c-.061.058-.126.113-.192.166s-.142.106-.217.153c-.076.048-.152.093-.232.133a2.677 2.677 0 0 1-.249.112 2.633 2.633 0 0 1-.259.087c-.087.023-.174.042-.262.057h-.007a2.209 2.209 0 0 1-.271.035c-.061.005-.124.007-.185.007a2.565 2.565 0 0 1-.275-.013 2.5 2.5 0 0 1-.265-.042h-.007c-.088-.017-.174-.041-.262-.067-.085-.026-.17-.055-.253-.089a2.573 2.573 0 0 1-.243-.115 2.427 2.427 0 0 1-.233-.144 2.39 2.39 0 0 1-.215-.16 2.689 2.689 0 0 1-.2-.182c-.063-.064-.124-.131-.179-.2-.054-.069-.108-.142-.156-.217a2.44 2.44 0 0 1-.134-.231 2.5 2.5 0 0 1-.109-.243 2.612 2.612 0 0 1-.087-.253 2.6 2.6 0 0 1-.057-.259 2.33 2.33 0 0 1-.035-.261v.005c-.005-.072-.01-.14-.01-.2 0-.086.007-.176.016-.269a2.3 2.3 0 0 1 .039-.262 2.458 2.458 0 0 1 .064-.259 2.412 2.412 0 0 1 .09-.25 2.672 2.672 0 0 1 .118-.24c.044-.079.093-.153.144-.227a2.621 2.621 0 0 1 .163-.214 2.519 2.519 0 0 1 .189-.2c.064-.061.131-.12.2-.176s.146-.107.224-.156a2.633 2.633 0 0 1 .237-.135c.081-.04.163-.075.249-.108.084-.032.169-.059.255-.083s.177-.045.265-.06c.032-.006.066-.008.1-.012.058-.007.116-.016.174-.02h.006c.063-.005.123-.01.186-.01a2.593 2.593 0 0 1 .275.016 2.553 2.553 0 0 1 .268.042 2.7 2.7 0 0 1 .518.157 2.657 2.657 0 0 1 .246.118 2.484 2.484 0 0 1 .234.141 2.529 2.529 0 0 1 .214.163c.067.055.131.112.192.173l.009.007a.816.816 0 0 0 1.388-.774v-8.382a.819.819 0 0 0-.818-.819h-7.133a4.292 4.292 0 0 0 .348-1.687 4.362 4.362 0 0 0-4.368-4.33.814.814 0 0 0-.582.243 4.242 4.242 0 0 0-3.787 4.087 4.3 4.3 0 0 0 .35 1.688h-7.135a.818.818 0 0 0-.818.818v7.052a4.387 4.387 0 0 0-1.717-.349 4.328 4.328 0 1 0 0 8.656 4.388 4.388 0 0 0 1.714-.353v7.032a.819.819 0 0 0 .818.819h8.68a.76.76 0 0 0 .116-.01c.021 0 .042-.005.063-.009l.047-.014a.814.814 0 0 0 .264-1.444c-.055-.058-.109-.116-.159-.177a2.622 2.622 0 0 1-.156-.218 2.654 2.654 0 0 1-.135-.23c-.041-.081-.079-.163-.112-.247a2.423 2.423 0 0 1-.086-.253c-.024-.086-.042-.171-.058-.259-.015-.084-.025-.168-.032-.252v-.014c0-.066-.006-.131-.006-.188a2.585 2.585 0 0 1 .016-.272 2.489 2.489 0 0 1 .038-.259c.018-.089.041-.178.067-.263s.058-.167.093-.249.075-.161.119-.24a2.578 2.578 0 0 1 .14-.23 2.878 2.878 0 0 1 .352-.412 2.623 2.623 0 0 1 .2-.179 2.656 2.656 0 0 1 .22-.157c.076-.048.154-.091.234-.131a2.549 2.549 0 0 1 .249-.112h.007a2.666 2.666 0 0 1 .256-.087c.088-.024.176-.042.265-.057a2.238 2.238 0 0 1 .272-.035c.062-.005.126-.007.188-.007a2.545 2.545 0 0 1 .544.055 2.505 2.505 0 0 1 .266.067c.087.026.172.058.255.092a2.566 2.566 0 0 1 .243.116c.081.043.159.093.234.143s.148.106.217.163c.071.059.135.122.2.186s.12.128.176.2c.056.07.107.144.157.221s.1.153.137.233a2.616 2.616 0 0 1 .109.243v.007a2.486 2.486 0 0 1 .086.252c.024.086.046.173.061.259a2.667 2.667 0 0 1 .032.265c0 .067.006.131.006.189a2.558 2.558 0 0 1-.013.272 2.609 2.609 0 0 1-.041.259c-.018.088-.041.174-.067.259s-.058.171-.093.253a3.246 3.246 0 0 1-.259.47c-.051.074-.108.145-.166.214-.044.051-.091.1-.138.145a.839.839 0 0 0-.182.208.814.814 0 0 0 .881 1.242h8.5a.818.818 0 0 0 .818-.819v-8.413a.814.814 0 0 0-.194-.778zm-7.74 8.362a4 4 0 0 0 .15-.409 4.229 4.229 0 0 0 .109-.422 4.135 4.135 0 0 0 .067-.432c.013-.138.022-.281.022-.428q0-.157-.009-.3v-.014a4.1 4.1 0 0 0-.055-.428 3.913 3.913 0 0 0-.1-.419 4.165 4.165 0 0 0-.137-.409 4.183 4.183 0 0 0-.175-.393 4.3 4.3 0 0 0-.218-.371 4.3 4.3 0 0 0-.256-.351 4.167 4.167 0 0 0-.287-.323c-.1-.1-.205-.2-.316-.294-.11-.091-.225-.178-.345-.259a4.272 4.272 0 0 0-.371-.227c-.128-.069-.26-.133-.393-.189s-.272-.1-.409-.147-.28-.077-.423-.105a4.028 4.028 0 0 0-.428-.064c-.143-.015-.289-.022-.435-.023-.106 0-.212.005-.317.014-.143.011-.286.026-.428.051a4.174 4.174 0 0 0-.42.093c-.14.039-.277.082-.412.134s-.267.111-.4.176a4.244 4.244 0 0 0-.377.214 4.149 4.149 0 0 0-.355.253 4.2 4.2 0 0 0-.326.284c-.106.1-.207.207-.3.317s-.18.224-.262.342a4.325 4.325 0 0 0-.23.371 4 4 0 0 0-.448 1.218 3.892 3.892 0 0 0-.067.429c-.013.139-.023.282-.023.429 0 .1 0 .2.01.3v.01a3.994 3.994 0 0 0 .055.435 3.91 3.91 0 0 0 .1.415c.039.139.087.277.14.412.015.039.035.076.051.115h-6.318V592.7a.815.815 0 0 0-1.245-.894.782.782 0 0 0-.2.172 2.756 2.756 0 0 1-1.911.776 2.691 2.691 0 1 1 0-5.382 2.742 2.742 0 0 1 1.911.773.81.81 0 0 0 .61.29h.012a.818.818 0 0 0 .818-.955v-7.629h7.793a.812.812 0 0 0 .652-.236c.021-.021.037-.046.056-.069s.03-.034.044-.054.015-.027.022-.041a.8.8 0 0 0-.175-1.043 2.666 2.666 0 0 1-.788-1.882 2.7 2.7 0 0 1 2.731-2.69h.006a2.678 2.678 0 0 1 1.941 4.571.811.811 0 0 0-.3.614.8.8 0 0 0 .118.43l.011.022a.9.9 0 0 0 .055.071c.015.019.027.039.044.057a.814.814 0 0 0 .668.25h7.787v6.229h-.011c-.135-.056-.272-.105-.409-.147a4.356 4.356 0 0 0-.426-.106c-.139-.028-.281-.052-.43-.067a4.093 4.093 0 0 0-.432-.022c-.1 0-.209.005-.314.013-.143.012-.285.03-.427.054-.143.025-.286.058-.425.1-.141.039-.278.086-.413.138a4.222 4.222 0 0 0-.4.176 4.176 4.176 0 0 0-.381.214c-.121.077-.237.159-.352.249-.113.09-.222.184-.326.285a4.332 4.332 0 0 0-.3.32c-.093.11-.18.224-.262.342a4.121 4.121 0 0 0-.23.368 4.2 4.2 0 0 0-.189.387 4.173 4.173 0 0 0-.147.406 4.286 4.286 0 0 0-.109.422 4.136 4.136 0 0 0-.067.429c-.013.139-.022.281-.022.428 0 .1 0 .2.009.3v.013a4.155 4.155 0 0 0 .054.431 4.041 4.041 0 0 0 .1.422 4.212 4.212 0 0 0 .14.41c.053.134.111.265.176.393.066.128.139.253.218.375s.162.238.253.351.187.221.287.323a4.306 4.306 0 0 0 .323.3c.112.092.226.178.346.259.12.081.243.158.371.227s.26.133.393.189c.133.055.267.1.406.147.137.041.277.077.419.105a4.08 4.08 0 0 0 .432.064c.142.015.288.022.435.023.1 0 .211-.005.315-.013.143-.01.286-.03.428-.054s.284-.055.422-.093c.139-.039.278-.086.412-.138.046-.017.091-.041.137-.06v6.238z" class="cls-3"></path><path id="Path_1162" d="M764.964 614.118a.82.82 0 0 0-1.158-.011l-.046.05-.048.048c-.061.059-.126.114-.192.167s-.142.1-.217.153a2.434 2.434 0 0 1-.232.134 2.645 2.645 0 0 1-.249.112 2.611 2.611 0 0 1-.259.086 2.677 2.677 0 0 1-.262.058h-.007a2.218 2.218 0 0 1-.27.035c-.061.005-.124.007-.185.007a2.581 2.581 0 0 1-.275-.013 2.5 2.5 0 0 1-.265-.042h-.007c-.088-.017-.174-.041-.262-.067a2.624 2.624 0 0 1-.253-.09 2.573 2.573 0 0 1-.243-.115 2.668 2.668 0 0 1-.233-.144 2.4 2.4 0 0 1-.215-.16 2.7 2.7 0 0 1-.2-.182c-.063-.064-.124-.13-.179-.2a2.678 2.678 0 0 1-.156-.218 2.29 2.29 0 0 1-.134-.23 2.609 2.609 0 0 1-.109-.243 2.618 2.618 0 0 1-.087-.253 2.593 2.593 0 0 1-.057-.259 2.332 2.332 0 0 1-.035-.261v.005c-.005-.072-.01-.14-.01-.2 0-.086.007-.176.016-.269a2.536 2.536 0 0 1 .039-.262 2.4 2.4 0 0 1 .064-.259 2.4 2.4 0 0 1 .09-.25 2.664 2.664 0 0 1 .118-.24c.044-.079.093-.153.144-.227a2.611 2.611 0 0 1 .163-.214 2.532 2.532 0 0 1 .189-.2c.064-.062.131-.12.2-.176s.146-.107.224-.156a2.633 2.633 0 0 1 .237-.135c.081-.04.163-.075.249-.108.084-.032.169-.059.255-.083s.177-.045.265-.06c.032-.006.066-.008.1-.012.058-.008.116-.016.174-.02h.007c.062-.005.122-.01.185-.01a2.593 2.593 0 0 1 .275.016 2.537 2.537 0 0 1 .268.042 2.559 2.559 0 0 1 .268.067c.086.026.169.056.25.089s.167.076.246.119.159.09.234.14c.074.051.144.1.214.163.067.055.131.111.192.172l.009.008a.817.817 0 0 0 1.389-.774v-8.382a.819.819 0 0 0-.819-.819h-7.133a4.275 4.275 0 0 0 .348-1.688 4.362 4.362 0 0 0-4.379-4.357.814.814 0 0 0-.582.243 4.241 4.241 0 0 0-3.786 4.086 4.284 4.284 0 0 0 .349 1.689h-7.135a.818.818 0 0 0-.818.818v7.052a4.386 4.386 0 0 0-1.717-.349 4.328 4.328 0 1 0 0 8.656 4.387 4.387 0 0 0 1.714-.353v7.058a.818.818 0 0 0 .818.818h8.68a.76.76 0 0 0 .116-.01l.063-.009.047-.014a.814.814 0 0 0 .264-1.444c-.055-.058-.109-.116-.159-.178a2.6 2.6 0 0 1-.156-.217 2.532 2.532 0 0 1-.135-.231c-.041-.08-.079-.162-.112-.246a2.52 2.52 0 0 1-.086-.253c-.024-.086-.042-.172-.058-.259-.014-.084-.025-.168-.032-.253v-.013c0-.067-.006-.131-.006-.188a2.584 2.584 0 0 1 .016-.272 2.489 2.489 0 0 1 .038-.259 2.543 2.543 0 0 1 .068-.263 2.471 2.471 0 0 1 .092-.249c.036-.082.075-.161.119-.24a2.579 2.579 0 0 1 .14-.23 3.146 3.146 0 0 1 .352-.413c.065-.062.131-.123.2-.179a2.441 2.441 0 0 1 .22-.157c.076-.048.154-.091.234-.132s.164-.079.249-.111h.007a2.667 2.667 0 0 1 .256-.087c.088-.024.176-.042.265-.057a2.452 2.452 0 0 1 .272-.036c.062-.005.126-.006.188-.006a2.581 2.581 0 0 1 .275.013c.085.008.176.023.269.041.089.018.178.041.266.068s.172.058.255.092.165.073.244.115.158.093.233.144a2.6 2.6 0 0 1 .217.163c.07.058.134.122.2.186s.12.128.176.2c.056.07.107.144.157.221s.1.153.137.233a2.61 2.61 0 0 1 .109.243v.007a2.486 2.486 0 0 1 .086.252c.024.086.046.173.061.259a2.634 2.634 0 0 1 .032.265c0 .067.006.131.006.189a2.553 2.553 0 0 1-.013.271 2.518 2.518 0 0 1-.041.259c-.018.088-.041.174-.067.259s-.058.17-.093.252a2.894 2.894 0 0 1-.259.47c-.051.074-.108.146-.166.215-.044.05-.091.1-.138.145a.821.821 0 0 0 .7 1.45h8.5a.819.819 0 0 0 .819-.819v-8.413a.819.819 0 0 0-.186-.774zm-7.74 8.363a4.016 4.016 0 0 0 .15-.409 4.286 4.286 0 0 0 .109-.422 4.156 4.156 0 0 0 .067-.432c.013-.139.022-.281.022-.428 0-.105 0-.2-.009-.3v-.013a4.1 4.1 0 0 0-.055-.428 3.949 3.949 0 0 0-.1-.418 4.184 4.184 0 0 0-.137-.41c-.053-.134-.111-.266-.176-.393-.066-.127-.14-.25-.218-.371-.078-.12-.165-.238-.256-.352s-.186-.219-.287-.323c-.1-.1-.205-.2-.316-.294a4.182 4.182 0 0 0-.345-.259 4.3 4.3 0 0 0-.371-.227c-.128-.069-.26-.133-.393-.189a4.276 4.276 0 0 0-.832-.252 4.044 4.044 0 0 0-.428-.064c-.143-.015-.288-.022-.435-.023-.106 0-.212.005-.317.013-.143.012-.286.027-.428.052s-.282.055-.419.092c-.14.039-.277.082-.412.134a4.239 4.239 0 0 0-.4.176 4.244 4.244 0 0 0-.377.214 4.461 4.461 0 0 0-.681.537c-.106.1-.207.207-.3.317s-.18.224-.262.342a4.324 4.324 0 0 0-.23.371 4.277 4.277 0 0 0-.192.39 3.869 3.869 0 0 0-.256.828 3.89 3.89 0 0 0-.067.429c-.013.139-.022.281-.022.428 0 .1 0 .2.009.3v.01a3.977 3.977 0 0 0 .055.435 3.911 3.911 0 0 0 .1.415 4.347 4.347 0 0 0 .14.412c.015.039.035.076.051.114h-6.318v-7.574a.815.815 0 0 0-1.245-.894.781.781 0 0 0-.2.172 2.75 2.75 0 0 1-1.911.775 2.691 2.691 0 1 1 0-5.381 2.737 2.737 0 0 1 1.911.773.814.814 0 0 0 .61.29h.012a.817.817 0 0 0 .818-.955v-7.628h7.793a.812.812 0 0 0 .652-.236c.021-.021.037-.046.056-.069s.03-.035.044-.054.015-.027.022-.041a.8.8 0 0 0-.175-1.043 2.667 2.667 0 0 1-.788-1.883 2.7 2.7 0 0 1 2.731-2.689h.006a2.678 2.678 0 0 1 1.941 4.571.811.811 0 0 0-.3.614.8.8 0 0 0 .118.43l.011.021a.761.761 0 0 0 .055.072c.015.019.027.039.044.057a.814.814 0 0 0 .668.25h7.787v6.229l-.011-.005q-.2-.084-.409-.147c-.139-.041-.282-.077-.426-.1a4.182 4.182 0 0 0-.862-.089c-.1 0-.209.005-.314.013-.143.012-.285.03-.427.054-.143.024-.286.058-.425.1a4.175 4.175 0 0 0-.413.138c-.134.051-.267.111-.4.175s-.259.137-.381.215-.237.159-.352.249c-.113.09-.222.184-.326.285a4.319 4.319 0 0 0-.3.32c-.093.109-.18.224-.262.342a4.253 4.253 0 0 0-.23.367 4.191 4.191 0 0 0-.189.387 4.179 4.179 0 0 0-.147.406c-.043.139-.08.281-.109.422a4.139 4.139 0 0 0-.067.429c-.013.138-.022.281-.022.428q0 .157.009.3v.014a4.152 4.152 0 0 0 .054.431 4.037 4.037 0 0 0 .1.422 4.223 4.223 0 0 0 .14.41c.053.134.111.265.176.393a4 4 0 0 0 .217.374 4.288 4.288 0 0 0 .253.352c.091.113.187.221.287.323s.212.2.323.3a4.321 4.321 0 0 0 .346.259c.12.081.243.157.371.227a4.286 4.286 0 0 0 .393.188c.133.056.267.1.406.148.137.041.277.077.419.1s.283.049.432.064.288.022.435.023c.105 0 .211-.005.315-.014a4.15 4.15 0 0 0 .428-.055 4.245 4.245 0 0 0 .423-.092c.139-.039.278-.086.412-.138.047-.018.091-.041.137-.06v6.238z" class="cls-3"></path><path id="Path_1163" d="M714.011 614.63a12.879 12.879 0 0 0-11.823 22.882v8.359a4.259 4.259 0 0 0 4.222 4.245h3.7a4.259 4.259 0 0 0 4.223-4.245v-8.362a13.311 13.311 0 0 0 5.455-5.61 12.893 12.893 0 0 0-5.777-17.269zm-1.192 26.753v2.658h-9.113v-2.658zm-2.7 7.214h-3.7a2.74 2.74 0 0 1-2.7-2.726v-.312h9.113v.312a2.74 2.74 0 0 1-2.718 2.729zm8.31-17.376a11.429 11.429 0 0 1-5.091 5.091c-.019.009-.027.02-.045.03a.75.75 0 0 0-.469.705v2.817h-1.8v-3.2a.76.76 0 0 0-1.519 0v3.2h-2.467v-3.2a.759.759 0 0 0-1.519 0v3.2h-1.8v-2.817a.75.75 0 0 0-.469-.705c-.018-.01-.031-.021-.05-.03a11.357 11.357 0 1 1 15.237-5.091z" class="cls-3"></path><path id="Path_1164" d="M708.262 609.518a.759.759 0 0 0 .76-.759v-4.734a.759.759 0 0 0-1.519 0v4.734a.759.759 0 0 0 .759.759z" class="cls-3"></path><path id="Path_1165" d="M730.071 625.057h-4.677a.759.759 0 1 0 0 1.519h4.677a.759.759 0 0 0 0-1.519z" class="cls-3"></path><path id="Path_1166" d="M691.131 625.057h-4.677a.759.759 0 0 0 0 1.519h4.677a.759.759 0 1 0 0-1.519z" class="cls-3"></path><path id="Path_1167" d="M722.941 609.856l-3.269 3.268a.759.759 0 0 0 1.074 1.074l3.269-3.268a.759.759 0 1 0-1.074-1.074z" class="cls-3"></path><path id="Path_1168" d="M696.316 614.421a.76.76 0 0 0 .537-1.3l-3.269-3.268a.759.759 0 0 0-1.074 1.074l3.269 3.268a.756.756 0 0 0 .537.226z" class="cls-3"></path></g></g></svg> 