<?xml version="1.0" encoding="UTF-8"?> <svg xmlns="http://www.w3.org/2000/svg" width="98" height="80" viewBox="0 0 98 80"><g><path fill="none" d="M0 0H98V80H0z" transform="translate(-375.256 -565.159) translate(375.256 565.159)"></path><path fill="#fff" d="M1884.248 898.264l-24.667-30.031 22.172-31.356h-8.514l-13.289 18.13-14.125-18.1h-28.966l24.8 32.4-20.975 28.957h8.932l11.994-16.791 13.421 16.791zm-55.136-.981h-6.5l20.061-27.7.214-.3-24.037-31.4h26.5l14 17.941-3.217 4.389-13.221-16.692h-13.075l19.546 25.384zm21.489-28.395l-18.775-24.38h10.608l13.094 16.531-5.3 7.233 18.905 22.89h-10.691l-12.248-16.1zm-5.006 7.01l12.358 16.245h13.261l-19.745-23.906 4.69-6.4 4.438-6-.022-.027 13.158-17.952h6.122l-21.509 30.42 23.826 29H1855.5l-13.3-16.639z" transform="translate(-375.256 -565.159) translate(-1441.148 -263.106)"></path></g></svg> 