<?xml version="1.0" encoding="UTF-8"?> <svg xmlns="http://www.w3.org/2000/svg" width="12" height="12" viewBox="0 0 12 12"><g><path fill="none" d="M0 0H12V12H0z" transform="translate(-1660.256 -841.159) translate(1660.256 841.159)"></path><path fill="#fff" d="M3.075 1.186h6.589a1.751 1.751 0 0 0 1.279-.421A1.7 1.7 0 0 0 11.37-.5v-6.63a1.7 1.7 0 0 0-.426-1.263 1.751 1.751 0 0 0-1.279-.421h-6.59a1.751 1.751 0 0 0-1.275.421 1.7 1.7 0 0 0-.43 1.263V-.5A1.7 1.7 0 0 0 1.8.765a1.751 1.751 0 0 0 1.275.421zm5.057-3.623a.406.406 0 0 1-.3-.117.443.443 0 0 1-.114-.323v-.961l.082-.87-.8.858-2.062 2.059a.451.451 0 0 1-.141.1.46.46 0 0 1-.185.035.4.4 0 0 1-.293-.114.418.418 0 0 1-.114-.31.415.415 0 0 1 .136-.3L6.4-4.436l.869-.815-.831.087H5.427a.455.455 0 0 1-.327-.114.39.39 0 0 1-.122-.3.394.394 0 0 1 .12-.3.437.437 0 0 1 .315-.114h2.66a.5.5 0 0 1 .342.109.453.453 0 0 1 .125.359v2.634a.471.471 0 0 1-.111.326.377.377 0 0 1-.297.127z" transform="translate(-1660.256 -841.159) translate(1659.886 850.973)"></path></g></svg> 