<?xml version="1.0" encoding="UTF-8"?> <!-- Generator: Adobe Illustrator 22.1.0, SVG Export Plug-In . SVG Version: 6.00 Build 0) --> <svg xmlns="http://www.w3.org/2000/svg" xmlns:xlink="http://www.w3.org/1999/xlink" version="1.1" id="Layer_1" x="0px" y="0px" viewBox="0 0 120 40" style="enable-background:new 0 0 120 40;" xml:space="preserve"> <style type="text/css"> .st0{fill:#F7F3FF;} </style> <g> <path class="st0" d="M73.7,7.6c-6.6-2.1-17-2.2-25.4-0.2c-4.1,1-7.1,2.3-8.8,3.8c-0.8,0.7-1.3,1.5-1.5,2.2c0,0,0,0,0.1,0 c0.8-0.7,2-1.5,3.4-2.2c2-1,4.6-1.8,7.7-2.6C57.7,6.6,67.5,6.3,73.7,7.6z"></path> <path class="st0" d="M89.3,23C89.3,23,89.3,23,89.3,23C89.3,23,89.3,23,89.3,23c-0.1,4.4-7.4,9.3-19.6,12.6c-7.3,2-15.1,3-22.3,3.2 c8.4,0.6,17.8-0.1,26-2.3C85.1,33.3,91,27.9,89.3,23z M89.2,24.9C89.2,24.9,89.2,24.8,89.2,24.9C89.2,24.8,89.2,24.9,89.2,24.9z M89.2,24.2c0,0,0-0.1,0-0.2C89.2,24.1,89.2,24.1,89.2,24.2z M89.3,23.4c0-0.1,0-0.1,0-0.2C89.3,23.3,89.3,23.4,89.3,23.4z M89.3,23.2c0-0.1,0-0.1,0-0.2C89.3,23.1,89.3,23.1,89.3,23.2z"></path> <path class="st0" d="M71.9,32.7c5.7-1.5,9.5-3.8,11-6.2c0.7-1.1,0.9-2.3,0.5-3.5c0,1.1-0.7,2.3-2,3.5c-2.3,2-6.4,4-12,5.5 c-5.2,1.4-10.8,2.2-16,2.3C59.3,34.8,66,34.3,71.9,32.7z"></path> <path class="st0" d="M31.9,11.2c1-0.7,2.1-1.3,3.4-1.9c2.8-1.3,6.4-2.5,10.7-3.6C51,4.6,56.2,3.8,61.2,3.4h13 c0.7,0.1,1.3,0.1,2,0.2c1.5,0.2,2.9,0.4,4.2,0.7c-8.6-2.7-21.8-3.1-33.1-0.9c-0.9,0.2-1.7,0.4-2.5,0.6c-3.9,0.9-7.1,2.1-9.5,3.4 c-2.2,1.2-3.7,2.5-4.4,3.8c-0.2,0.4-0.4,0.8-0.5,1.2c0,0,0,0,0,0c0,0,0,0,0,0l0,0c0,0,0,0,0,0c0,0,0,0,0,0c0,0,0,0,0,0l0,0 c0,0,0,0,0,0l0,0C30.9,12,31.4,11.6,31.9,11.2z"></path> <rect x="50.7" y="26.5" class="st0" width="0" height="0"></rect> <path class="st0" d="M47.8,15l0.4-1.2h-3.5L44.4,15l-0.2,0.5L44,16l-1,3.1L43,19.5c-0.5,1.5-0.9,2-2.8,2l-1.4,0l-1.5,0 c-2.3,0-2.2-0.5-1.7-2.4l0.9-3l0.3-1l0.4-1.2h-1.7h-1.7L33.3,15l-1.5,4.9c-1.2,3.8,1.2,4,4.9,4c0.9,0,1.9,0,2.8,0 c1.9,0,3.6-0.1,4.8-0.9c0.9-0.6,1.6-1.5,2-2.9l0.2-0.6l1.1-3.5L47.8,15z"></path> <path class="st0" d="M50.7,23.9C50.7,23.9,50.8,23.9,50.7,23.9c0.5,0,0.9,0,1.3,0c1.5,0,2.9,0,4.5-0.1c0.9-0.1,1.6-0.1,2.2-0.3 c0.4-0.1,0.7-0.3,1.1-0.5c0.7-0.4,1.2-1.2,1.5-2.3c0-0.1,0.1-0.2,0.1-0.3c0.6-2.1-0.5-2.7-2.6-2.8c-0.2,0-0.4,0-0.7,0 c-0.8,0-1.5,0-2.3,0l-2.3,0c-0.8,0-2,0.1-1.7-0.9c0.1-0.4,0.5-0.6,0.9-0.7c0.2,0,0.4-0.1,0.6-0.1c0.9,0,1.8-0.1,2.7-0.1 c0.5,0,1.1,0,1.7,0c0.3,0,0.6,0,0.7,0.1c0.3,0.1,0.4,0.4,0.3,0.8h0.1H62c0.1-0.3,0.2-0.5,0.2-0.8c0.1-0.4,0.1-0.7,0-1 c0,0,0,0,0-0.1c-0.4-1.2-2-1.2-3.4-1.2l-0.1,0l-2.3,0c-1.3,0-3.9,0-5.2,0.3c-0.2,0-0.3,0.1-0.5,0.1c-0.7,0.2-1.2,0.5-1.6,0.9 c-0.3,0.3-0.5,0.6-0.7,1c-0.1,0.3-0.2,0.6-0.3,0.9c-0.6,1.9-0.2,2.8,2,2.9c0.2,0,0.4,0,0.6,0c1.7,0.1,3.4,0.1,5.1,0.1h0.6 c0.6,0,1.3,0.1,1.4,0.5c0,0.1,0,0.2,0,0.4c-0.3,0.9-1,0.8-1.8,0.9c-0.8,0-1.6,0.1-2.3,0.1c-0.5,0-1.1,0-1.6,0c-0.4,0-0.9,0-1.2-0.2 c0,0,0,0,0,0c-0.2-0.1-0.3-0.3-0.2-0.7c0-0.1,0-0.1,0-0.2h-3.4L47,21.2c-0.4,1.2-0.2,1.8,0.3,2.2c0.5,0.3,1.4,0.4,2.4,0.5 C50,23.9,50.4,23.9,50.7,23.9z"></path> <polygon class="st0" points="61.3,23.8 63.8,23.8 64.7,23.8 64.8,23.4 65,23 65.8,20.4 67.1,16 67.5,15 67.8,13.8 64.8,13.8 64.4,13.8 64,15 63.8,15.6 63.7,16 62.3,20.4 61.5,23 "></polygon> <path class="st0" d="M78.6,13.7l-2.1,0l-0.2,0c-1.2,0-3.7,0-4.9,0.3c-0.2,0-0.3,0.1-0.4,0.1c-0.7,0.2-1.1,0.5-1.5,0.9 c-0.3,0.3-0.5,0.6-0.6,1c-0.1,0.3-0.2,0.6-0.3,0.9c-0.6,1.9-0.2,2.8,1.9,2.9c0.2,0,0.3,0,0.5,0c1.6,0.1,3.2,0.1,4.9,0.1h0.5 c0.6,0,1.2,0.1,1.3,0.5c0,0.1,0,0.2,0,0.4c-0.3,0.9-1,0.8-1.7,0.9c-0.8,0-1.5,0.1-2.2,0.1c-0.5,0-1,0-1.5,0c-0.4,0-0.9,0-1.2-0.2 c-0.2-0.1-0.4-0.3-0.2-0.8c0-0.1,0-0.1,0-0.2h-3.2l-0.2,0.6c-0.2,0.8-0.2,1.4,0,1.8c0.4,0.7,1.3,0.8,2.6,0.9c0.3,0,0.7,0,1,0 c0.4,0,0.8,0,1.2,0c1.4,0,2.8,0,4.2-0.1c1.4-0.1,2.4-0.3,3.1-0.8c0.6-0.4,1.1-1.2,1.4-2.3c0-0.1,0.1-0.2,0.1-0.3 c0.6-2.4-0.7-2.8-3.2-2.8c-0.7,0-1.4,0-2.2,0l-2.2,0c-0.7,0-1.9,0.1-1.6-0.9c0.1-0.4,0.5-0.6,0.9-0.7c0.2,0,0.4-0.1,0.6-0.1 c0.9,0,1.7-0.1,2.5-0.1c0.2,0,0.5,0,0.7,0c0.3,0,0.6,0,0.9,0c0.7,0,1.2,0.2,1,0.9h3.2c0.1-0.2,0.1-0.5,0.2-0.8 c0.1-0.4,0.1-0.7,0-1.1c0,0,0,0,0-0.1c-0.1-0.4-0.4-0.7-0.7-0.8c-0.3-0.2-0.7-0.3-1.1-0.3C79.5,13.7,79,13.7,78.6,13.7z"></path> </g> </svg> 