<?xml version="1.0" encoding="UTF-8"?> <!-- Generator: Adobe Illustrator 22.1.0, SVG Export Plug-In . SVG Version: 6.00 Build 0) --> <svg xmlns="http://www.w3.org/2000/svg" xmlns:xlink="http://www.w3.org/1999/xlink" version="1.1" id="Layer_1" x="0px" y="0px" viewBox="0 0 120 40" style="enable-background:new 0 0 120 40;" xml:space="preserve"> <style type="text/css"> .st0{fill:#F7F3FF;} </style> <g> <path class="st0" d="M7.3,11.8c0.3-0.4,0.6-0.8,0.9-1.1c0.1-0.1,0.1-0.1,0.2-0.2c0-0.1,0.1-0.1,0.2-0.1C8.7,10.2,8.9,10.1,9,10 c0.1-0.1,0.1-0.1,0.2-0.2c0.1-0.1,0.2-0.1,0.2-0.2c1.8-1.5,3.9-2.5,6.3-2.9c0.1,0,0.2,0,0.2,0c0.6-0.1,1.3-0.1,1.9-0.1 c0.6,0,1.2,0,1.8,0.1c0.4,0.1,0.8,0.1,1.2,0.2c0,0,0,0,0,0c1.6,0.4,3,1,4.3,1.9c-5.2,4.1-5.3,4.2-9.9,10.9c-1-1.1-1.9-2.2-2.9-3.2 c-1.5-1.5-3.1-3-4.9-4.2C7.3,12.2,7.2,12,7.3,11.8z"></path> <path class="st0" d="M31.1,19.8c0,0.1,0,0.2,0,0.3c-0.1,3.4-1.4,6.6-3.6,8.9c-0.1,0.1-0.1,0.1-0.2,0.2c-0.1,0.1-0.2,0.2-0.3,0.3 c-1.4,1.4-3.2,2.4-5.1,3c-0.1,0-0.2,0.1-0.3,0.1c-0.1,0-0.2,0-0.2,0.1c0,0-0.1,0-0.1,0c-0.1,0-0.2,0-0.3,0.1 c-0.3,0.1-0.7,0.2-1,0.2c-0.5,0.1-0.9,0.1-1.4,0.2c-0.2,0-0.5,0-0.8,0c-0.3,0-0.5,0-0.8,0C11,32.8,6,28.3,4.9,22.5 c0-0.1,0-0.2,0-0.2c0-0.1,0-0.2,0-0.2c0-0.1,0-0.2,0-0.3c-0.1-0.6-0.1-1.3-0.1-1.9c0-0.8,0.1-1.5,0.2-2.2c0.1-0.3,0.3-0.2,0.8,0.1 c2.6,1.7,4.5,4,6.2,6.4c0.9,1.4,1.7,2.8,2.5,4.3c0.2,0.4,0.5,0.8,0.9,1.1c0.4,0.3,0.6,0.2,0.8-0.2c1.8-5.1,4.9-9.3,8.6-13.2 c1.2-1.3,2.5-2.4,3.7-3.7c0.3-0.3,0.4-0.3,0.6,0c0,0,0.1,0.1,0.1,0.1c0.1,0.1,0.1,0.2,0.2,0.3c1.2,1.9,1.9,4.1,1.9,6.5 C31.1,19.6,31.1,19.7,31.1,19.8z"></path> <path class="st0" d="M31.1,19.8c0,0.1,0,0.2,0,0.3c-0.1,3.3-1.4,6.5-3.6,8.9c-0.1,0.1-0.1,0.1-0.2,0.2c-0.1,0.1-0.2,0.2-0.3,0.3 c-1.4,1.4-3.1,2.4-5.1,3c-0.1,0-0.2,0.1-0.3,0.1c-0.1,0-0.2,0-0.2,0.1c0,0-0.1,0-0.1,0c-0.1,0-0.2,0-0.3,0.1 c-0.2,0-0.4,0.1-0.6,0.1c-0.1,0-0.3,0-0.4,0.1c-0.3,0.1-0.6,0.1-0.8,0.2h-2.7c-1.1-0.1-2.1-0.2-3.1-0.6c-3.2-1.2-5.7-3.3-7.3-6.3 c-0.3-0.6-0.8-1.9-1.2-3.6c0-0.1,0-0.2,0-0.2c0-0.1,0-0.2,0-0.2c0-0.1,0-0.2,0-0.3c-0.2-1.2-0.2-2.4-0.1-3.7c0-0.2,0.1-0.4,0.1-0.5 c0.1-0.3,0.3-0.2,0.8,0.1c2.6,1.7,4.5,4,6.2,6.4c0.9,1.4,1.7,2.8,2.5,4.3c0.2,0.4,0.5,0.8,0.9,1.1c0.4,0.3,0.6,0.2,0.8-0.2 c1.8-5.1,4.9-9.3,8.6-13.2c1.2-1.3,2.5-2.4,3.7-3.7c0.3-0.3,0.4-0.3,0.6,0c0,0,0.1,0.1,0.1,0.1c0.1,0.1,0.1,0.2,0.2,0.3 c1.3,2.1,1.9,4.3,1.9,6.5C31.1,19.6,31.1,19.7,31.1,19.8z"></path> <path class="st0" d="M25.2,8.8L25.2,8.8c-5.2,4.1-5.3,4.2-9.9,10.9c-1-1.1-1.9-2.2-2.9-3.2c-1.5-1.5-3.1-3-4.9-4.2 c-0.3-0.2-0.3-0.3-0.2-0.5c0-0.1,0.1-0.1,0.1-0.2C7.7,11.3,8,11,8.2,10.7c0.1-0.1,0.1-0.1,0.2-0.2c0-0.1,0.1-0.1,0.2-0.1 C8.7,10.2,8.9,10.1,9,10c0.1-0.1,0.1-0.1,0.2-0.2c0.1-0.1,0.2-0.1,0.2-0.2c0.2-0.1,0.3-0.3,0.5-0.4c0.1-0.1,0.3-0.2,0.4-0.3 c0,0,0.1-0.1,0.1-0.1c1.5-1,3.1-1.7,5-2c0.1,0,0.1,0,0.2,0c0.1,0,0.2,0,0.2,0c0.1,0,0.1-0.1,0.2-0.1h3.3c0.1,0.1,0.1,0.1,0.2,0.1 c0.2,0.1,0.4,0.1,0.6,0.1c0.2,0,0.4,0.1,0.6,0.1c0,0,0,0,0,0C22.4,7.3,23.8,7.9,25.2,8.8z"></path> <path class="st0" d="M73.3,18.3c-0.1-1.1-0.4-2.1-0.9-3.1c-0.8-1.7-2.6-2.7-4.7-2.9c-2-0.1-3.9,0.5-4.9,1.7c0-0.1,0-0.3,0-0.4 c0-0.3-0.1-0.6-0.3-0.8c-0.3-0.3-0.6-0.2-0.8-0.2c-0.1,0-0.1,0-0.2,0c-0.3,0-0.5,0.1-0.7,0.2c-0.2,0.2-0.2,0.5-0.2,0.7 c0,0,0,0.1,0,0.1c0,4.5,0,9,0,13.4l0,5.5c0,0.2,0,0.4,0,0.6c0,0.1,0,0.2,0,0.3c0,0.1,0,0.2,0.1,0.3c0.1,0.1,0.2,0.1,0.3,0.1h1.3 c0.2,0,0.4-0.2,0.4-0.4c0-2.4,0-4.8,0-7.2c1.3,1.3,3,1.8,5.2,1.5c2.3-0.3,3.9-1.6,4.8-3.9C73.6,21.9,73.5,19.8,73.3,18.3L73.3,18.3 z M71.2,19.7c0,1.5-0.1,2.8-0.7,3.9c0,0,0,0,0,0c-0.5,1-1.6,1.8-2.8,2.1c-1.3,0.2-2.6-0.1-3.4-0.8c-0.6-0.5-0.9-1.2-1.1-2.3 c-0.3-1.8-0.3-3.5,0-5.1c0.3-1.6,1.1-2.6,2.5-2.9c0.7-0.2,1.2-0.2,1.8-0.2c1.1,0,1.9,0.4,2.6,1.1c0.8,0.8,1,1.9,1.2,3 c0,0.4,0.1,0.7,0.1,1C71.2,19.5,71.2,19.7,71.2,19.7z"></path> <path class="st0" d="M100.6,11.1l0-4.2c0-0.2-0.2-0.4-0.4-0.4h-1.3c-0.1,0-0.2,0-0.3,0.1c-0.1,0.1-0.1,0.2-0.1,0.3l0,4.2 c0,5.1,0,10.3,0,15.5c0,0.3,0.1,0.6,0.3,0.7c0.2,0.2,0.5,0.2,0.8,0.2c0,0,0.1,0,0.1,0c0,0,0.1,0,0.1,0c0,0,0.1,0,0.1,0 c0.2,0,0.5,0,0.7-0.2c0.2-0.2,0.3-0.4,0.2-0.7C100.6,21.4,100.6,16.2,100.6,11.1z"></path> <path class="st0" d="M53.7,12.6c-0.1,0-0.2,0-0.3,0c-0.2,0-0.4,0-0.6,0c-0.4,0-0.8,0.2-0.9,0.6c-0.5,1.5-1.1,2.9-1.7,4.4 c-0.9,2.2-1.8,4.5-2.5,6.9c-0.8-2.3-1.6-4.5-2.5-6.7c-0.6-1.5-1.2-3-1.7-4.5c-0.2-0.5-0.5-0.7-1-0.7c-0.2,0-0.4,0-0.6,0 c-0.1,0-0.2,0-0.3,0c-0.1,0-0.3,0.1-0.4,0.2c-0.1,0.1-0.1,0.3-0.1,0.4c0,0.1,0,0.1,0.1,0.2c0,0.1,0.1,0.2,0.1,0.3 c0.4,1.1,0.8,2.1,1.2,3.2c1.3,3.2,2.6,6.6,3.8,9.9c0.3,0.7,0.8,0.8,1.1,0.8c0.1,0,0.1,0,0.2,0c0,0,0.1,0,0.1,0c0.3,0,0.9,0,1.2-0.7 c1.1-2.8,2.2-5.6,3.2-8.4c0.4-0.9,0.7-1.8,1-2.7c0.2-0.6,0.5-1.2,0.7-1.8l0.3-0.8c0.1-0.1,0-0.3,0-0.4C54,12.6,53.9,12.6,53.7,12.6 z"></path> <path class="st0" d="M83.1,26.1c0-0.3-0.2-0.4-0.2-0.5c-0.2-0.2-0.5-0.1-0.6,0c0,0,0,0-0.1,0c-0.2,0-0.4,0-0.6,0 c-0.3,0-0.5,0.1-0.8,0.1c-1.4,0-1.9-0.4-2.1-1.8c0-0.2,0-0.4,0-0.6c0-0.9,0-1.9,0-2.8c0-1.9,0-4,0-5.9c0.5,0,0.9,0,1.4,0 c0.6,0,1.2,0,1.8,0c0.3,0,0.5-0.1,0.7-0.2c0.2-0.2,0.2-0.5,0.2-0.7c0,0,0-0.1,0-0.1l0,0c0-0.2,0-0.5-0.2-0.8 c-0.2-0.2-0.4-0.2-0.7-0.2c-0.6,0-1.1,0-1.7,0c-0.5,0-1,0-1.5,0c0,0-0.1,0-0.1,0c0,0,0,0,0,0c0-0.6,0-1.2,0-1.8c0-0.2,0-0.5,0-0.7 l0-0.1c0-0.1,0-0.4-0.2-0.6c-0.1-0.1-0.3-0.2-0.5-0.2c-0.2,0-0.8,0-0.9,0.7c-0.1,0.4-0.1,0.7-0.2,1.1c-0.1,0.4-0.2,0.8-0.2,1.2 c0,0.3-0.1,0.3-0.3,0.3c-0.3,0.1-0.5,0.1-0.8,0.2c-0.2,0.1-0.4,0.1-0.5,0.1c-0.7,0.2-0.6,0.7-0.6,0.9c0,0,0,0.1,0,0.1 c0,0.3,0.1,0.4,0.2,0.5c0.2,0.2,0.5,0.2,0.6,0.2c0,0,0,0,0.1,0c0.1,0,0.2,0,0.3,0c0.3,0,0.6,0,1,0c0,1.1,0,2.3,0,3.4 c0,0.4,0,0.8,0,1.2c0,0,0,0.1,0,0.1c0,0.4,0,0.9,0,1.3c0,1.1,0,2.2,0,3.3c0,1.4,0.5,2.5,1.5,3.1c0.8,0.6,1.7,0.7,2.5,0.7 c0.7,0,1.5-0.1,2.1-0.3c0.7-0.2,0.6-0.9,0.5-1.2C83.1,26.3,83.1,26.2,83.1,26.1z"></path> <path class="st0" d="M57.1,12.6L57.1,12.6c-0.1,0-0.1,0-0.2,0c-0.2,0-0.5,0-0.8,0.2c-0.2,0.2-0.3,0.5-0.3,0.8c0,4.4,0,8.8,0,13 c0,0.2,0,0.6,0.3,0.8c0.2,0.2,0.5,0.2,0.8,0.2c0.1,0,0.1,0,0.2,0c0.1,0,0.1,0,0.2,0c0.2,0,0.4,0,0.6-0.2c0.2-0.2,0.3-0.5,0.3-0.8 c0-1.6,0-3.3,0-4.8c0-0.6,0-1.1,0-1.7c0-0.6,0-1.2,0-1.8c0-1.5,0-3.1,0-4.7c0-0.2,0-0.5-0.2-0.8C57.7,12.6,57.4,12.6,57.1,12.6z"></path> <path class="st0" d="M57,7.4c-0.5,0-1.2,0.3-1.2,1.8c0,1.4,0.8,1.6,1.3,1.6c0,0,0,0,0,0c0.6,0,1.3-0.4,1.3-1.7 c0-0.6-0.2-1.1-0.5-1.4C57.6,7.5,57.3,7.4,57,7.4z"></path> <path class="st0" d="M113.9,16.1c0,0,0-0.1,0-0.1c-0.5-2.3-1.8-3.4-4.1-3.6c-1.6-0.2-3.2,0.1-4.8,0.8c-0.1,0-0.2,0.1-0.2,0.1 c-0.4,0.1-0.6,0.2-0.7,0.5c-0.1,0.2,0,0.5,0.1,0.7c0,0.1,0.1,0.2,0.1,0.4c0.1,0.2,0.2,0.5,0.5,0.6c0.3,0.1,0.5,0,0.7-0.1 c1.4-0.7,2.7-0.9,4-0.8c1.2,0.1,1.9,0.7,2.3,1.8c0.2,0.6,0.2,1.3,0.2,2l0,0.2c0,0,0,0,0,0c0,0,0,0-0.1,0c-0.4,0-0.8,0-1.2,0 c-0.9,0-1.8,0-2.7,0.1c-1.1,0.1-2.5,0.4-3.7,1.3c-1.4,1-1.9,2.4-1.7,4.3c0.2,1.7,1.2,2.9,2.8,3.4c0.7,0.2,1.5,0.3,2.1,0.3 c1.7,0,3.2-0.7,4.4-2c0,0,0,0,0,0c0,0.1,0,0.2,0,0.3c0.2,1.2,0.3,1.4,1.5,1.5c0.1,0,0.2,0,0.3-0.1c0.1-0.1,0.1-0.2,0.1-0.3V16.4 C114,16.3,114,16.2,113.9,16.1z M111.8,20.9c0,0.1,0,0.2,0,0.2c0,0.4,0,0.8-0.1,1.2c-0.4,1.9-1.6,3.1-3.5,3.3 c-0.7,0.1-1.2,0.1-1.7,0c-1-0.2-1.6-0.8-1.7-1.7c-0.1-0.8,0-2,1.1-2.6c0.9-0.5,1.9-0.6,2.7-0.7c0.6-0.1,1.2-0.1,1.8-0.1 c0.5,0,0.9,0,1.4-0.1C111.8,20.6,111.8,20.8,111.8,20.9z"></path> <path class="st0" d="M96.1,19.2c0-0.6,0-1.1-0.1-1.7c-0.4-2.6-2-4.5-4.2-5c-3-0.7-5.9,0.7-7.2,3.5c-1.2,2.6-1.2,5.3-0.2,8 c0.8,2,2.4,3.3,4.6,3.7c0.6,0.1,1.2,0.2,1.8,0.2c1.2,0,2.3-0.2,3.4-0.6c1.2-0.4,1.3-0.6,1.2-2c0-0.1-0.1-0.3-0.2-0.3 c-0.1-0.1-0.3-0.1-0.4,0c-0.1,0-0.2,0.1-0.2,0.1c-0.2,0.1-0.3,0.1-0.4,0.2c-1.3,0.5-2.7,0.7-4.2,0.6c-1.8-0.2-2.9-1-3.6-2.7 c-0.3-0.7-0.4-1.4-0.5-2.2c0-0.1,0-0.1,0-0.1c0,0,0.1,0,0.2,0c1.8,0,3.6,0,5.4,0c1.2,0,2.4,0,3.7,0c0.2,0,0.5,0,0.7-0.2 c0.2-0.2,0.2-0.5,0.2-0.7C96.1,19.6,96.1,19.4,96.1,19.2z M93.8,18.6c-0.9,0-1.8,0-2.7,0l-1.1,0c-0.3,0-0.7,0-1,0 c-0.9,0-1.9,0-2.9,0c0.2-0.9,0.4-1.9,1-2.8c0.6-0.9,1.7-1.5,2.9-1.5c0.1,0,0.2,0,0.3,0c0.9,0,1.8,0.3,2.4,1 C93.4,16.1,93.8,17.1,93.8,18.6z"></path> </g> </svg> 